<?xml version="1.0" encoding="UTF-8" standalone="no"?>
<svg
   xmlns:dc="http://purl.org/dc/elements/1.1/"
   xmlns:cc="http://creativecommons.org/ns#"
   xmlns:rdf="http://www.w3.org/1999/02/22-rdf-syntax-ns#"
   xmlns:svg="http://www.w3.org/2000/svg"
   xmlns="http://www.w3.org/2000/svg"
   id="svg8"
   version="1.1"
   viewBox="0 0 36.08853 36.088711"
   height="36.088711"
   width="36.088528">
  <defs
     id="defs2">
    <path
       id="path4801"
       d="m 58.264756,123.54207 c 43.564484,20.57782 47.841694,-11.9361 88.198944,9.35444"
       style="display:inline;opacity:0;vector-effect:none;fill:none;fill-opacity:1;fill-rule:evenodd;stroke:#000000;stroke-width:1.32291663;stroke-linecap:butt;stroke-linejoin:round;stroke-miterlimit:4;stroke-dasharray:none;stroke-dashoffset:1107.35998535;stroke-opacity:1" />
    <filter
       style="color-interpolation-filters:sRGB"
       id="filter973"
       x="-0.058800001"
       width="1.1176"
       y="-0.058800001"
       height="1.1176">
      <feGaussianBlur
         stdDeviation="1.3705416"
         id="feGaussianBlur975" />
    </filter>
  </defs>
  <metadata
     id="metadata5">
    <rdf:RDF>
      <cc:Work
         rdf:about="">
        <dc:format>image/svg+xml</dc:format>
        <dc:type
           rdf:resource="http://purl.org/dc/dcmitype/StillImage" />
        <dc:title></dc:title>
        <dc:creator>
          <cc:Agent>
            <dc:title>(C) 2018 David Lettier</dc:title>
          </cc:Agent>
        </dc:creator>
      </cc:Work>
    </rdf:RDF>
  </metadata>
  <g
     transform="translate(-649.84698,-111.67761)"
     style="display:inline"
     id="layer6" />
  <g
     style="display:inline"
     transform="translate(-649.84698,-198.67759)"
     id="layer1" />
  <g
     transform="translate(-649.84698,-111.67761)"
     style="display:inline"
     id="layer3" />
  <g
     transform="translate(-649.84698,-111.67761)"
     style="display:inline"
     id="layer4" />
  <g
     transform="translate(-649.84698,-111.67761)"
     style="display:inline"
     id="layer2" />
  <g
     transform="translate(-649.84698,-111.67761)"
     style="display:inline"
     id="layer5">
    <g
       style="display:inline"
       id="layer1-62"
       transform="matrix(4.991,0,0,4.991,358.10922,-997.54681)">
      <path
         d="m 63.824011,223.36496 a 3.0512118,3.0512118 0 0 1 0.748734,4.23803 3.0512118,3.0512118 0 0 1 -4.234014,0.7711 3.0512118,3.0512118 0 0 1 -0.793448,-4.22989 3.0512118,3.0512118 0 0 1 4.225634,-0.81577"
         id="path971"
         style="opacity:1;fill:#ffb109;fill-opacity:1;fill-rule:evenodd;stroke:none;stroke-width:0.54543906;stroke-linecap:round;stroke-linejoin:round;stroke-miterlimit:4;stroke-dasharray:none;stroke-dashoffset:151.18110657;stroke-opacity:1;paint-order:normal" />
      <path
         d="m 106.05423,175.09544 a 27.970238,27.970238 0 0 1 6.86358,38.84968 27.970238,27.970238 0 0 1 -38.812892,7.06864 27.970238,27.970238 0 0 1 -7.273484,-38.77503 27.970238,27.970238 0 0 1 38.736076,-7.47813"
         id="path967"
         style="opacity:1;fill:none;fill-opacity:1;fill-rule:evenodd;stroke:#cb8a00;stroke-width:5;stroke-linecap:round;stroke-linejoin:round;stroke-miterlimit:4;stroke-dasharray:none;stroke-dashoffset:151.18110657;stroke-opacity:1;paint-order:normal;filter:url(#filter973)"
         transform="matrix(0.09977325,0,0,0.09977325,53.09271,206.10818)" />
      <text
         xml:space="preserve"
         style="font-style:normal;font-variant:normal;font-weight:bold;font-stretch:normal;font-size:5.33811808px;line-height:125%;font-family:'Fira Sans';-inkscape-font-specification:'Fira Sans Bold';text-align:start;letter-spacing:0.65258491px;word-spacing:0px;writing-mode:lr-tb;text-anchor:start;fill:#ae7700;fill-opacity:1;stroke:#875b00;stroke-width:0.13345294px;stroke-linecap:butt;stroke-linejoin:miter;stroke-opacity:1"
         x="60.969799"
         y="228.03539"
         id="text965"><tspan
           id="tspan963"
           x="60.969799"
           y="228.03539"
           style="fill:#ae7700;fill-opacity:1;stroke:#875b00;stroke-width:0.13345294px;stroke-opacity:1">1</tspan></text>
      <text
         id="text961"
         y="227.8456"
         x="60.760094"
         style="font-style:normal;font-variant:normal;font-weight:bold;font-stretch:normal;font-size:5.33811808px;line-height:125%;font-family:'Fira Sans';-inkscape-font-specification:'Fira Sans Bold';text-align:start;letter-spacing:0.65258491px;word-spacing:0px;writing-mode:lr-tb;text-anchor:start;fill:#d99400;fill-opacity:1;stroke:#875b00;stroke-width:0.13345294px;stroke-linecap:butt;stroke-linejoin:miter;stroke-opacity:1"
         xml:space="preserve"><tspan
           style="fill:#d99400;fill-opacity:1;stroke:#875b00;stroke-width:0.13345294px;stroke-opacity:1"
           y="227.8456"
           x="60.760094"
           id="tspan959">1</tspan></text>
      <text
         xml:space="preserve"
         style="font-style:normal;font-variant:normal;font-weight:bold;font-stretch:normal;font-size:5.33811808px;line-height:125%;font-family:'Fira Sans';-inkscape-font-specification:'Fira Sans Bold';text-align:start;letter-spacing:0.65258491px;word-spacing:0px;writing-mode:lr-tb;text-anchor:start;fill:#ffd67c;fill-opacity:1;stroke:#875b00;stroke-width:0.13345294px;stroke-linecap:butt;stroke-linejoin:miter;stroke-opacity:1"
         x="60.547348"
         y="227.66457"
         id="text957"><tspan
           id="tspan955"
           x="60.547348"
           y="227.66457"
           style="fill:#ffd67c;fill-opacity:1;stroke:#875b00;stroke-width:0.13345294px;stroke-opacity:1">1</tspan></text>
      <path
         style="opacity:1;fill:none;fill-opacity:1;fill-rule:evenodd;stroke:#ffc246;stroke-width:0.54543906;stroke-linecap:round;stroke-linejoin:round;stroke-miterlimit:4;stroke-dasharray:none;stroke-dashoffset:151.18110657;stroke-opacity:1;paint-order:normal"
         id="path815"
         d="m 63.824011,223.36496 a 3.0512118,3.0512118 0 0 1 0.748734,4.23803 3.0512118,3.0512118 0 0 1 -4.234014,0.7711 3.0512118,3.0512118 0 0 1 -0.793448,-4.22989 3.0512118,3.0512118 0 0 1 4.225634,-0.81577" />
      <path
         d="m 63.998845,223.11649 a 3.3550258,3.3550258 0 0 1 0.823286,4.66002 3.3550258,3.3550258 0 0 1 -4.6556,0.84788 3.3550258,3.3550258 0 0 1 -0.872454,-4.65106 3.3550258,3.3550258 0 0 1 4.646387,-0.897"
         id="path996"
         style="opacity:1;fill:none;fill-opacity:1;fill-rule:evenodd;stroke:#875b00;stroke-width:0.11999659;stroke-linecap:round;stroke-linejoin:round;stroke-miterlimit:4;stroke-dasharray:0.9599727, 0.47998635;stroke-dashoffset:0;stroke-opacity:1;paint-order:normal" />
      <path
         style="opacity:1;fill:none;fill-opacity:1;fill-rule:evenodd;stroke:#875b00;stroke-width:0.10039807;stroke-linecap:round;stroke-linejoin:round;stroke-miterlimit:4;stroke-dasharray:none;stroke-dashoffset:151.18110657;stroke-opacity:1;paint-order:normal"
         id="path998"
         d="m 63.684142,223.56372 a 2.8081577,2.8081577 0 0 1 0.689091,3.90043 2.8081577,2.8081577 0 0 1 -3.89674,0.70968 2.8081577,2.8081577 0 0 1 -0.730243,-3.89294 2.8081577,2.8081577 0 0 1 3.889027,-0.75079" />
    </g>
  </g>
  <g
     transform="translate(-445.41484,-170.7783)"
     id="layer7" />
</svg>
