<?xml version="1.0" encoding="UTF-8" standalone="no"?>
<svg
   xmlns:dc="http://purl.org/dc/elements/1.1/"
   xmlns:cc="http://creativecommons.org/ns#"
   xmlns:rdf="http://www.w3.org/1999/02/22-rdf-syntax-ns#"
   xmlns:svg="http://www.w3.org/2000/svg"
   xmlns="http://www.w3.org/2000/svg"
   version="1.1"
   id="svg2"
   height="409.94507"
   width="426.71603">
  <defs
     id="defs4" />
  <metadata
     id="metadata7">
    <rdf:RDF>
      <cc:Work
         rdf:about="">
        <dc:format>image/svg+xml</dc:format>
        <dc:type
           rdf:resource="http://purl.org/dc/dcmitype/StillImage" />
        <dc:title></dc:title>
        <dc:creator>
          <cc:Agent>
            <dc:title>(C) 2018 David Lettier</dc:title>
          </cc:Agent>
        </dc:creator>
      </cc:Work>
    </rdf:RDF>
  </metadata>
  <g
     id="layer1"
     transform="translate(-27.545802,-596.30417)">
    <text
       xml:space="preserve"
       style="font-style:normal;font-variant:normal;font-weight:normal;font-stretch:normal;font-size:40px;line-height:50%;font-family:'Ubuntu Condensed';-inkscape-font-specification:'Ubuntu Condensed,';text-align:start;letter-spacing:0px;word-spacing:0px;writing-mode:lr-tb;text-anchor:start;fill:#000000;fill-opacity:1;stroke:none"
       x="270.72089"
       y="453.34171"
       id="text3001"><tspan
         id="tspan3003"
         x="270.72089"
         y="475.64139" /></text>
    <g
       id="text3815"
       style="font-style:normal;font-variant:normal;font-weight:normal;font-stretch:normal;font-size:325.91049194px;line-height:50%;font-family:'Ubuntu Condensed';-inkscape-font-specification:'Ubuntu Condensed,';text-align:start;letter-spacing:0px;word-spacing:0px;writing-mode:lr-tb;text-anchor:start;fill:#ffffff;fill-opacity:1;stroke:none"
       transform="scale(-0.99028892,1.0098063)"
       aria-label="t">
      <path
         id="path892"
         d="m -81.099709,646.3069 h 43.020185 v 24.11738 h -43.020185 v 94.18813 q 0,17.59917 6.192299,24.7692 6.51821,6.84412 17.273256,6.84412 5.540479,0 10.429136,-1.62955 5.214568,-1.62955 8.799583,-3.91093 l 5.540479,22.48783 q -13.362331,7.82185 -28.354213,7.82185 -24.117377,0 -36.176065,-13.36233 -11.732776,-13.68824 -11.732776,-44.97565 V 600.35352 l 28.028301,-4.88865 z" />
    </g>
    <g
       id="text3819"
       style="font-style:normal;font-variant:normal;font-weight:normal;font-stretch:normal;font-size:321.24243164px;line-height:50%;font-family:'Ubuntu Condensed';-inkscape-font-specification:'Ubuntu Condensed,';text-align:start;letter-spacing:0px;word-spacing:0px;writing-mode:lr-tb;text-anchor:start;fill:#ffffff;fill-opacity:1;stroke:none"
       aria-label="t">
      <path
         id="path877"
         d="m 107.68287,829.0633 h 42.404 v 23.77194 h -42.404 v 92.83906 q 0,17.34709 6.10361,24.41443 6.42485,6.74609 17.02585,6.74609 5.46112,0 10.27975,-1.60621 5.13988,-1.60622 8.67355,-3.85491 l 5.46112,22.16572 q -13.17094,7.70978 -27.94809,7.70978 -23.77194,0 -35.65791,-13.1709 Q 80.056022,974.58612 80.056022,943.74685 V 783.76812 l 27.626848,-4.81864 z" />
    </g>
    <g
       id="text3827"
       style="font-style:normal;font-variant:normal;font-weight:normal;font-stretch:normal;font-size:316.21212769px;line-height:50%;font-family:'Ubuntu Condensed';-inkscape-font-specification:'Ubuntu Condensed,';text-align:start;letter-spacing:0px;word-spacing:0px;writing-mode:lr-tb;text-anchor:start;fill:#ffffff;fill-opacity:1;stroke:none"
       transform="scale(1.015908,0.98434109)"
       aria-label="e">
      <path
         id="path880"
         d="m 224.71732,937.24901 q 0.31621,12.01606 2.21348,22.13485 1.89727,9.80257 6.00803,17.39167 4.42697,7.27287 11.38364,11.38363 7.27288,4.11076 18.3403,4.11076 9.17015,0 16.75925,-2.5297 7.9053,-2.84591 11.38363,-4.74318 l 5.0594,21.81866 q -4.11076,2.8459 -13.91334,6.008 -9.48636,3.4783 -22.76727,3.4783 -17.39167,0 -29.40773,-6.3242 -11.69985,-6.3242 -19.28894,-17.70788 -7.27288,-11.38364 -10.435,-27.19424 -3.16212,-15.81061 -3.16212,-34.78334 0,-45.85076 15.17818,-67.03697 15.17818,-21.18621 40.15894,-21.18621 28.14288,0 39.84273,21.18621 11.69985,21.18621 11.69985,59.44788 0,3.47834 0,7.27288 0,3.47833 -0.31621,7.27288 z m 27.51045,-72.09637 q -13.59712,0 -19.92136,13.59713 -6.00803,13.59712 -7.27288,36.36439 h 50.27773 q 0,-23.08348 -4.74318,-36.36439 -4.74319,-13.59713 -18.34031,-13.59713 z" />
    </g>
    <g
       id="text3831"
       style="font-style:normal;font-variant:normal;font-weight:normal;font-stretch:normal;font-size:320.5897522px;line-height:50%;font-family:'Ubuntu Condensed';-inkscape-font-specification:'Ubuntu Condensed,';text-align:start;letter-spacing:0px;word-spacing:0px;writing-mode:lr-tb;text-anchor:start;fill:#ffffff;fill-opacity:1;stroke:none"
       transform="scale(1.0020359,0.99796825)"
       aria-label="r">
      <path
         id="path883"
         d="m 391.22262,858.88766 q -10.25887,-4.48825 -23.08246,-4.48825 -11.86182,0 -22.12069,4.16767 V 1002.1913 H 318.44875 V 841.25523 q 9.2971,-4.48826 21.15892,-7.37357 12.18241,-3.20589 26.60895,-3.20589 7.69416,0 15.38831,0.96177 7.69415,0.96177 14.42654,3.52648 z" />
    </g>
    <rect
       y="979.49664"
       x="379.60315"
       height="8.6047077"
       width="2.8682361"
       id="rect3843"
       style="opacity:0.89302326;fill:#ffffff;fill-opacity:1;fill-rule:nonzero;stroke:none" />
    <path
       style="fill:none;stroke:#ffffff;stroke-width:23.81818199;stroke-linecap:butt;stroke-linejoin:miter;stroke-miterlimit:4;stroke-dasharray:none;stroke-opacity:1"
       d="m 331.15341,988.26919 h 106.00934 c 0,-127.75061 0.18998,-245.81534 0.18998,-370.4982 -57.1786,0 -221.21509,0 -331.82264,0"
       id="path3849" />
    <path
       style="fill:#ffffff;fill-opacity:1;stroke:none"
       d="m 161.85036,1000.4621 h 27.60677 V 828.98352 c -11.47518,0 -17.49631,0 -27.57545,0 z"
       id="path3951" />
    <ellipse
       style="opacity:0.89302326;fill:#ffffff;fill-opacity:1;fill-rule:nonzero;stroke:none;stroke-width:7.95445681"
       id="path3953"
       cx="175.58676"
       cy="770.42303"
       rx="13.422652"
       ry="13.862118" />
    <g
       id="text3827-3"
       style="font-style:normal;font-variant:normal;font-weight:normal;font-stretch:normal;font-size:316.21212769px;line-height:50%;font-family:'Ubuntu Condensed';-inkscape-font-specification:'Ubuntu Condensed,';text-align:start;letter-spacing:0px;word-spacing:0px;writing-mode:lr-tb;text-anchor:start;fill:#ffffff;fill-opacity:1;stroke:none"
       transform="scale(-1.015908,0.9843411)"
       aria-label="e">
      <path
         id="path889"
         d="m -275.84141,763.09758 q 0.31621,12.01606 2.21348,22.13485 1.89727,9.80258 6.00803,17.39167 4.42697,7.27288 11.38364,11.38363 7.27288,4.11076 18.3403,4.11076 9.17015,0 16.75924,-2.5297 7.90531,-2.8459 11.38364,-4.74318 l 5.05939,21.81864 q -4.11075,2.84591 -13.91333,6.00803 -9.48636,3.47833 -22.76727,3.47833 -17.39167,0 -29.40773,-6.32424 -11.69985,-6.32424 -19.28894,-17.70788 -7.27288,-11.38363 -10.435,-27.19424 -3.16212,-15.81061 -3.16212,-34.78334 0,-45.85075 15.17818,-67.03697 15.17818,-21.18621 40.15894,-21.18621 28.14288,0 39.84273,21.18621 11.69985,21.18622 11.69985,59.44788 0,3.47834 0,7.27288 0,3.47834 -0.31621,7.27288 z m 27.51045,-72.09636 q -13.59712,0 -19.92136,13.59712 -6.00803,13.59712 -7.27288,36.36439 h 50.27773 q 0,-23.08348 -4.74319,-36.36439 -4.74318,-13.59712 -18.3403,-13.59712 z" />
    </g>
    <g
       id="text3831-7"
       style="font-style:normal;font-variant:normal;font-weight:normal;font-stretch:normal;font-size:320.5897522px;line-height:50%;font-family:'Ubuntu Condensed';-inkscape-font-specification:'Ubuntu Condensed,';text-align:start;letter-spacing:0px;word-spacing:0px;writing-mode:lr-tb;text-anchor:start;fill:#ffffff;fill-opacity:1;stroke:none"
       transform="scale(-1.0020359,-0.99796824)"
       aria-label="r">
      <path
         id="path886"
         d="m -323.25653,-802.4653 q -10.25888,-4.48826 -23.08247,-4.48826 -11.86182,0 -22.12069,4.16767 v 143.62421 h -27.57072 v -160.93606 q 9.29711,-4.48825 21.15893,-7.37356 12.18241,-3.2059 26.60895,-3.2059 7.69415,0 15.3883,0.96177 7.69416,0.96177 14.42654,3.52649 z" />
    </g>
  </g>
</svg>
