<?xml version="1.0" encoding="UTF-8" standalone="no"?>
<svg
   xmlns:dc="http://purl.org/dc/elements/1.1/"
   xmlns:cc="http://creativecommons.org/ns#"
   xmlns:rdf="http://www.w3.org/1999/02/22-rdf-syntax-ns#"
   xmlns:svg="http://www.w3.org/2000/svg"
   xmlns="http://www.w3.org/2000/svg"
   width="720"
   height="913.59741"
   viewBox="0 0 720.00004 913.59742"
   version="1.1"
   id="svg8">
  <defs
     id="defs2">
    <path
       style="display:inline;opacity:0;vector-effect:none;fill:none;fill-opacity:1;fill-rule:evenodd;stroke:#000000;stroke-width:1.32291663;stroke-linecap:butt;stroke-linejoin:round;stroke-miterlimit:4;stroke-dasharray:none;stroke-dashoffset:1107.35998535;stroke-opacity:1"
       d="m 58.264756,123.54207 c 43.564484,20.57782 47.841694,-11.9361 88.198944,9.35444"
       id="path4801" />
  </defs>
  <metadata
     id="metadata5">
    <rdf:RDF>
      <cc:Work
         rdf:about="">
        <dc:format>image/svg+xml</dc:format>
        <dc:type
           rdf:resource="http://purl.org/dc/dcmitype/StillImage" />
        <dc:title></dc:title>
        <dc:creator>
          <cc:Agent>
            <dc:title>(C) 2018 David Lettier</dc:title>
          </cc:Agent>
        </dc:creator>
      </cc:Work>
    </rdf:RDF>
  </metadata>
  <g
     id="layer6"
     style="display:inline"
     transform="translate(-204.43214,59.100693)">
    <path
       d="m 411.66309,472.04512 c 18.25128,-8.42814 8.44733,-283.47267 -1.24039,-292.87653 -6.09145,-5.91286 -70.42255,-3.71978 -79.79756,4.17027 -10.72558,9.02664 -12.48903,282.01422 0,288.06469 14.33317,6.9439 61.50455,9.66178 81.03795,0.64157 z"
       style="display:inline;opacity:1;vector-effect:none;fill:#21005a;fill-opacity:1;fill-rule:evenodd;stroke:none;stroke-width:5.15036583;stroke-linecap:butt;stroke-linejoin:round;stroke-miterlimit:4;stroke-dasharray:none;stroke-dashoffset:1107.35998535;stroke-opacity:1"
       id="path1074" />
    <path
       id="path1086"
       style="display:inline;opacity:1;vector-effect:none;fill:#21005a;fill-opacity:1;fill-rule:evenodd;stroke:none;stroke-width:3.44049501;stroke-linecap:butt;stroke-linejoin:round;stroke-miterlimit:4;stroke-dasharray:none;stroke-dashoffset:1107.35998535;stroke-opacity:1"
       d="m 412.184,721.44516 c 18.49959,-3.71047 8.56225,-124.79802 -1.25727,-128.93804 -6.17432,-2.60312 -71.38072,-1.63763 -80.88329,1.83593 -10.87152,3.97396 -12.65897,124.15596 0,126.81966 14.52819,3.05703 62.34138,4.25358 82.14056,0.28245 z" />
  </g>
</svg>
