<?xml version="1.0" encoding="UTF-8" standalone="no"?>
<svg
   xmlns:dc="http://purl.org/dc/elements/1.1/"
   xmlns:cc="http://creativecommons.org/ns#"
   xmlns:rdf="http://www.w3.org/1999/02/22-rdf-syntax-ns#"
   xmlns:svg="http://www.w3.org/2000/svg"
   xmlns="http://www.w3.org/2000/svg"
   width="720"
   height="913.59741"
   viewBox="0 0 720.00004 913.59742"
   version="1.1"
   id="svg8">
  <defs
     id="defs2">
    <path
       style="display:inline;opacity:0;vector-effect:none;fill:none;fill-opacity:1;fill-rule:evenodd;stroke:#000000;stroke-width:1.32291663;stroke-linecap:butt;stroke-linejoin:round;stroke-miterlimit:4;stroke-dasharray:none;stroke-dashoffset:1107.35998535;stroke-opacity:1"
       d="m 58.264756,123.54207 c 43.564484,20.57782 47.841694,-11.9361 88.198944,9.35444"
       id="path4801" />
  </defs>
  <metadata
     id="metadata5">
    <rdf:RDF>
      <cc:Work
         rdf:about="">
        <dc:format>image/svg+xml</dc:format>
        <dc:type
           rdf:resource="http://purl.org/dc/dcmitype/StillImage" />
        <dc:title></dc:title>
        <dc:creator>
          <cc:Agent>
            <dc:title>(C) 2018 David Lettier</dc:title>
          </cc:Agent>
        </dc:creator>
      </cc:Work>
    </rdf:RDF>
  </metadata>
  <g
     id="layer4"
     style="display:inline"
     transform="translate(-204.43214,59.100693)">
    <path
       d="m 411.66309,472.04512 c 18.25128,-8.42814 8.44733,-283.47267 -1.24039,-292.87653 -6.09145,-5.91286 -70.42255,-3.71978 -79.79756,4.17027 -10.72558,9.02664 -12.48903,282.01422 0,288.06469 14.33317,6.9439 61.50455,9.66178 81.03795,0.64157 z"
       style="opacity:1;vector-effect:none;fill:#e9dbff;fill-opacity:0.50884956;fill-rule:evenodd;stroke:none;stroke-width:5.15036583;stroke-linecap:butt;stroke-linejoin:round;stroke-miterlimit:4;stroke-dasharray:none;stroke-dashoffset:1107.35998535;stroke-opacity:1"
       id="path1988" />
    <path
       id="path1992"
       d="m 322.15615,368.61874 c 0.65245,-17.95562 22.08213,-30.2533 39.03326,-58.68235 10.43961,-12.02125 47.5457,-55.03179 56.99041,-67.74094 l 1.70286,29.47592 c -10.00614,13.34822 -24.31105,35.51732 -34.0803,49.15088 -13.6388,15.89917 -42.8142,55.13697 -63.32573,63.50605 z"
       style="opacity:1;vector-effect:none;fill:#e3d4ff;fill-opacity:0.40707966;fill-rule:evenodd;stroke:none;stroke-width:6.60267735;stroke-linecap:butt;stroke-linejoin:round;stroke-miterlimit:4;stroke-dasharray:none;stroke-dashoffset:1107.35998535;stroke-opacity:1" />
    <path
       d="m 410.60975,469.50521 c 17.82341,-8.25929 8.2493,-277.79426 -1.2113,-287.00974 -5.94864,-5.79446 -68.77175,-3.64531 -77.92702,4.08668 -10.47415,8.84587 -12.19626,276.36505 0,282.29434 13.99715,6.80482 60.06278,9.46825 79.13832,0.62872 z m 6.06869,5.92378 c 20.6094,-8.67004 9.53877,-291.60909 -1.40064,-301.28284 -6.87845,-6.08264 -79.52148,-3.8266 -90.1078,4.2899 -12.1114,9.28579 -14.10268,290.10877 0,296.33295 16.18505,7.14321 69.45121,9.9391 91.50844,0.65999 z"
       style="opacity:1;vector-effect:none;fill:#320087;fill-opacity:1;fill-rule:evenodd;stroke:none;stroke-width:5.03840733;stroke-linecap:butt;stroke-linejoin:round;stroke-miterlimit:4;stroke-dasharray:none;stroke-dashoffset:1107.35998535;stroke-opacity:1"
       id="path894" />
  </g>
</svg>
