<?xml version="1.0" encoding="UTF-8" standalone="no"?>
<svg
   xmlns:dc="http://purl.org/dc/elements/1.1/"
   xmlns:cc="http://creativecommons.org/ns#"
   xmlns:rdf="http://www.w3.org/1999/02/22-rdf-syntax-ns#"
   xmlns:svg="http://www.w3.org/2000/svg"
   xmlns="http://www.w3.org/2000/svg"
   width="65.718567"
   height="109.17722"
   viewBox="0 0 65.718571 109.17722"
   version="1.1"
   id="svg8">
  <defs
     id="defs2">
    <path
       style="display:inline;opacity:0;vector-effect:none;fill:none;fill-opacity:1;fill-rule:evenodd;stroke:#000000;stroke-width:1.32291663;stroke-linecap:butt;stroke-linejoin:round;stroke-miterlimit:4;stroke-dasharray:none;stroke-dashoffset:1107.35998535;stroke-opacity:1"
       d="m 58.264756,123.54207 c 43.564484,20.57782 47.841694,-11.9361 88.198944,9.35444"
       id="path4801" />
  </defs>
  <metadata
     id="metadata5">
    <rdf:RDF>
      <cc:Work
         rdf:about="">
        <dc:format>image/svg+xml</dc:format>
        <dc:type
           rdf:resource="http://purl.org/dc/dcmitype/StillImage" />
        <dc:title></dc:title>
        <dc:creator>
          <cc:Agent>
            <dc:title>(C) 2018 David Lettier</dc:title>
          </cc:Agent>
        </dc:creator>
      </cc:Work>
    </rdf:RDF>
  </metadata>
  <g
     id="layer3"
     style="display:inline"
     transform="translate(-339.08249,-370.71094)">
    <g
       style="enable-background:new"
       id="g2069"
       transform="matrix(0.59452783,0,0,0.59452783,334.13721,365.76566)">
      <g
         style="display:inline"
         transform="translate(-39.979402,-41.491477)"
         id="g2045">
        <path
           id="path2011"
           d="m 52.117558,220.29364 c 1.821895,15.23792 102.889762,15.26075 105.036922,0.26727 V 91.737002 c -1.67409,-11.925435 -4.91437,-13.670639 -7.48355,-19.777946 -0.0368,-2.446943 0.3399,-5.927865 0.80181,-9.621702 -42.84465,-19.311103 -88.0562,-3.803457 -93.795388,2.748194 l -0.283482,7.942586 c -3.120704,3.916928 -6.019097,8.096588 -6.414468,15.234365 z"
           style="opacity:1;vector-effect:none;fill:#62d400;fill-opacity:1;fill-rule:evenodd;stroke:none;stroke-width:1.32291663;stroke-linecap:butt;stroke-linejoin:round;stroke-miterlimit:4;stroke-dasharray:none;stroke-dashoffset:1107.35998535;stroke-opacity:1" />
        <path
           style="display:inline;opacity:1;vector-effect:none;fill:#63627b;fill-opacity:1;fill-rule:evenodd;stroke:none;stroke-width:1.32291663;stroke-linecap:butt;stroke-linejoin:round;stroke-miterlimit:4;stroke-dasharray:none;stroke-dashoffset:1107.35998535;stroke-opacity:1"
           d="m 149.67093,71.959056 c -0.0368,-2.446943 0.3399,-5.927865 0.80181,-9.621702 -42.84465,-19.311103 -87.678224,-5.787832 -93.795388,2.748194 l -0.283482,7.942586 c 30.747257,9.766459 70.94093,11.210576 93.27706,-1.069078 z"
           id="path2013" />
        <path
           id="path2015"
           d="m 147.86179,61.746353 c 2.18037,0.811788 2.25385,12.038433 -1.82173,13.056889 l -11.45334,2.8621 c 1.06435,-0.982813 5.08311,-6.44067 3.04107,-8.764259 12.58891,-4.149917 -0.73782,-3.47008 -3.20853,-4.795262 4.17185,-0.546511 5.50689,-2.517326 4.31685,-5.757113 z"
           style="display:inline;opacity:1;vector-effect:none;fill:#4f4f63;fill-opacity:1;fill-rule:evenodd;stroke:none;stroke-width:1.32291663;stroke-linecap:butt;stroke-linejoin:round;stroke-miterlimit:4;stroke-dasharray:none;stroke-dashoffset:1107.35998535;stroke-opacity:1" />
        <path
           id="path2017"
           d="m 65.831511,68.159024 c -2.326565,-0.01026 -3.130436,6.074036 0.986516,6.909691 l 4.70058,0.95412 c -4.257399,-3.931251 2.135578,-5.962715 -3.410197,-7.85377 z"
           style="display:inline;opacity:1;vector-effect:none;fill:#bbbbc9;fill-opacity:1;fill-rule:evenodd;stroke:none;stroke-width:1.32291663;stroke-linecap:butt;stroke-linejoin:round;stroke-miterlimit:4;stroke-dasharray:none;stroke-dashoffset:1107.35998535;stroke-opacity:1" />
        <path
           style="display:inline;opacity:1;vector-effect:none;fill:#bbbbc9;fill-opacity:1;fill-rule:evenodd;stroke:none;stroke-width:1.32291663;stroke-linecap:butt;stroke-linejoin:round;stroke-miterlimit:4;stroke-dasharray:none;stroke-dashoffset:1107.35998535;stroke-opacity:1"
           d="m 75.527003,69.16356 c -2.32657,-0.01026 -3.13044,6.074036 0.98651,6.909691 l 4.70058,0.95412 c -4.25739,-3.931251 2.13558,-5.962715 -3.41019,-7.85377 z"
           id="path2019" />
        <path
           d="m 58.079887,71.631022 c 40.167462,11.982155 68.429313,9.836313 89.728133,-0.572319 l 0.9787,-7.796708 C 120.01146,50.272351 76.331302,48.528377 58.953732,66.582519 Z m -1.686017,1.397112 c 34.30795,11.392936 65.52025,11.474831 93.27706,-1.069078 l 0.80181,-9.621702 c -40.13062,-19.74462 -81.211168,-8.65285 -93.79539,2.748193 z"
           style="display:inline;opacity:1;vector-effect:none;fill:#3a3243;fill-opacity:1;fill-rule:evenodd;stroke:none;stroke-width:0.90434176;stroke-linecap:butt;stroke-linejoin:round;stroke-miterlimit:4;stroke-dasharray:none;stroke-dashoffset:1107.35998535;stroke-opacity:1"
           id="path2021" />
        <path
           id="path2023"
           d="m 58.878896,64.583984 -0.379057,3.252955 c 5.766243,4.131937 68.188791,10.266017 90.361481,-2.577173 l -0.0746,-1.997771 C 122.78226,75.02583 67.532284,70.105283 58.878906,64.583984 Z"
           style="display:inline;opacity:1;vector-effect:none;fill:#3a3243;fill-opacity:1;fill-rule:evenodd;stroke:none;stroke-width:1.32291663;stroke-linecap:butt;stroke-linejoin:round;stroke-miterlimit:4;stroke-dasharray:none;stroke-dashoffset:1107.35998535;stroke-opacity:1" />
        <path
           style="display:inline;opacity:1;vector-effect:none;fill:#3a3243;fill-opacity:1;fill-rule:evenodd;stroke:none;stroke-width:1.32291663;stroke-linecap:butt;stroke-linejoin:round;stroke-miterlimit:4;stroke-dasharray:none;stroke-dashoffset:1107.35998535;stroke-opacity:1"
           d="M 66.286508,67.47141 C 99.770257,56.76833 131.68056,64.410603 143.75864,66.110212 L 146.0464,65.24637 C 112.98254,57.642221 86.191358,57.963405 63.198771,66.58179 Z"
           id="path2025" />
        <path
           id="path2027"
           d="m 65.359375,78.873047 c -4.162269,4.92802 -11.17193,8.966838 -9.09375,16.458984 V 221.0957 l 5.999,0.6339 C 68.099933,191.00068 45.533781,83.690388 68.8125,80.365234 68.68525,78.574886 66.729501,77.672153 65.359375,78.873047 Z"
           style="display:inline;opacity:1;vector-effect:none;fill:#74fa00;fill-opacity:1;fill-rule:evenodd;stroke:none;stroke-width:1.32291663;stroke-linecap:butt;stroke-linejoin:round;stroke-miterlimit:4;stroke-dasharray:none;stroke-dashoffset:1107.35998535;stroke-opacity:1" />
        <path
           style="display:inline;opacity:1;vector-effect:none;fill:#54b700;fill-opacity:1;fill-rule:evenodd;stroke:none;stroke-width:1.32291663;stroke-linecap:butt;stroke-linejoin:round;stroke-miterlimit:4;stroke-dasharray:none;stroke-dashoffset:1107.35998535;stroke-opacity:1"
           d="m 145.29242,78.64602 c 0,0 7.51467,-0.684204 8.91099,14.558758 l -1.25807,128.005392 -9.79308,3.45939 C 137.31695,193.94064 166.49802,80.149067 136.20348,81.835217 Z"
           id="path2029" />
        <path
           style="display:inline;opacity:1;vector-effect:none;fill:#74fa00;fill-opacity:1;fill-rule:evenodd;stroke:none;stroke-width:1.61872339;stroke-linecap:butt;stroke-linejoin:round;stroke-miterlimit:4;stroke-dasharray:none;stroke-dashoffset:1107.35998535;stroke-opacity:1"
           d="M 79.328487,80.57394 C 73.09673,85.50196 62.601853,89.540778 65.713308,97.032924 V 222.79659 l 8.981714,0.6339 C 83.431655,192.70157 49.645572,85.391281 84.498512,82.066127 84.307993,80.275779 81.379842,79.373046 79.328487,80.57394 Z"
           id="path2031" />
        <path
           transform="translate(39.979402,41.491477)"
           id="path2033"
           d="m 20.203051,134.61291 1.515229,-12.37437 c 0,0 12.12183,7.32361 10.859139,8.08122 -1.26269,0.75762 23.233509,-9.59645 23.233509,-9.59645 l 11.616754,10.60661 16.920055,-9.09138 10.606602,6.566 8.586301,-10.35407 10.35406,17.17259 -0.75762,24.24367 c 0,0 -4.04061,10.10152 -5.80837,10.6066 -1.76777,0.50507 -10.606604,-11.36422 -10.606604,-11.36422 l -6.313454,3.78807 -12.12183,15.40483 -11.869293,-9.34391 -5.050762,5.05076 -8.586297,-15.15229 -17.172593,13.13199 -1.767767,-12.37437 -13.384521,9.59645 -1.010153,-11.11168 -6.565991,1.01015 0.252538,-32.82996 z"
           style="opacity:1;vector-effect:none;fill:#028a00;fill-opacity:0.46017701;fill-rule:evenodd;stroke:none;stroke-width:1;stroke-linecap:butt;stroke-linejoin:round;stroke-miterlimit:4;stroke-dasharray:none;stroke-dashoffset:1107.35998535;stroke-opacity:1" />
        <path
           d="m 54.357894,214.78309 c 1.648869,13.79077 95.575126,17.59119 97.518366,4.02165 l 2.32715,-125.599962 c -1.5151,-10.792872 -4.18038,-12.372333 -8.91099,-14.558758 -29.88263,12.988348 -57.445583,9.343375 -84.418504,0.967548 -2.82433,3.544935 -6.58139,4.114853 -6.939213,10.574753 z m -2.240336,5.51055 c 1.821895,15.23792 102.889762,15.26075 105.036922,0.26727 V 91.737002 c -1.67409,-11.925435 -5.18164,-14.205178 -7.75082,-20.312485 -28.73607,13.326707 -59.499844,11.033117 -92.608886,1.135895 -3.120704,3.916928 -6.420001,8.56431 -6.815372,15.702087 z"
           style="display:inline;opacity:1;vector-effect:none;fill:#3a3243;fill-opacity:1;fill-rule:evenodd;stroke:none;stroke-width:1.19727874;stroke-linecap:butt;stroke-linejoin:round;stroke-miterlimit:4;stroke-dasharray:none;stroke-dashoffset:1107.35998535;stroke-opacity:1"
           id="path2035" />
        <path
           id="path2037"
           style="opacity:1;vector-effect:none;fill:#3a3243;fill-opacity:1;fill-rule:evenodd;stroke:none;stroke-width:0.90434176;stroke-linecap:butt;stroke-linejoin:round;stroke-miterlimit:4;stroke-dasharray:none;stroke-dashoffset:1107.35998535;stroke-opacity:1"
           d="m 58.079887,71.631022 c 40.167462,11.982155 68.429313,9.836313 89.728133,-0.572319 l 0.9787,-7.796708 C 120.01146,50.272351 76.331302,48.528377 58.953732,66.582519 Z m -1.686017,1.397112 c 34.30795,11.392936 65.52025,11.474831 93.27706,-1.069078 l 0.80181,-9.621702 c -40.13062,-19.74462 -81.211168,-8.65285 -93.79539,2.748193 z" />
        <path
           d="m 119.02014,68.630502 -2.85703,2.601579 -7.91178,-0.304747 3.96646,-5.578562 z m 2.07533,-0.705484 c 4.13528,2.2561 1.29981,4.324836 -2.99107,3.928571 l -12.32832,-0.389639 4.27899,-8.679206 z"
           style="display:inline;opacity:1;vector-effect:none;fill:#3a3243;fill-opacity:1;fill-rule:evenodd;stroke:none;stroke-width:1.23990166;stroke-linecap:butt;stroke-linejoin:round;stroke-miterlimit:4;stroke-dasharray:none;stroke-dashoffset:1107.35998535;stroke-opacity:1"
           id="path2039" />
        <path
           id="path2041"
           style="display:inline;opacity:1;vector-effect:none;fill:#3a3243;fill-opacity:1;fill-rule:evenodd;stroke:none;stroke-width:0.65293807;stroke-linecap:butt;stroke-linejoin:round;stroke-miterlimit:4;stroke-dasharray:none;stroke-dashoffset:1107.35998535;stroke-opacity:1"
           d="m 117.69941,69.626119 -1.33572,1.535046 -4.15693,0.323168 1.73444,-3.159856 z m 1.0425,-0.495593 -1.32489,2.237317 -6.47224,0.548147 1.7088,-4.800742 z" />
        <path
           d="m 121.27803,70.133138 c -0.87145,-2.205513 7.23471,-7.725036 14.19158,-1.962217 z m -1.72847,0.581248 c 0.32416,-2.627989 7.11855,-9.793784 17.41397,-2.193007 z"
           style="display:inline;opacity:1;vector-effect:none;fill:#3a3243;fill-opacity:1;fill-rule:evenodd;stroke:#3a3243;stroke-width:0.78897738;stroke-linecap:butt;stroke-linejoin:round;stroke-miterlimit:4;stroke-dasharray:none;stroke-dashoffset:1107.35998535;stroke-opacity:1"
           id="path2043" />
      </g>
      <g
         id="g2051">
        <g
           aria-label="Programming"
           style="font-style:normal;font-variant:normal;font-weight:bold;font-stretch:normal;font-size:13.96523666px;line-height:40.0000006%;font-family:Knewave;-inkscape-font-specification:'Knewave Bold';text-align:start;letter-spacing:0.52369636px;word-spacing:0px;writing-mode:lr-tb;text-anchor:start;fill:#fcff19;fill-opacity:1;stroke:none;stroke-width:0.52369636px;stroke-linecap:butt;stroke-linejoin:miter;stroke-opacity:1"
           id="text2049">
          <path
             d="m 27.759094,145.8974 q -0.363097,0.6005 -0.921706,1.03343 -0.558609,0.41895 -1.17308,0.61447 -0.600505,0.18155 -1.20101,0.0977 -0.600505,-0.0838 -1.033428,-0.51671 -0.195513,0.61447 -0.335165,1.22894 -0.125688,0.60051 -0.195514,1.22894 -0.05586,0.22345 -0.195513,0.40499 -0.125687,0.37707 -0.432922,0.62844 -0.29327,0.25137 -0.684297,0.3631 -0.377061,0.11172 -0.796018,0.0838 -0.404992,-0.014 -0.754123,-0.16759 -0.335166,-0.15361 -0.55861,-0.44688 -0.223444,-0.29327 -0.223444,-0.71223 0.404992,-1.39652 0.85188,-2.76512 0.446887,-1.36859 1.005497,-2.70925 0.195513,-0.44689 0.307235,-0.7262 0.125687,-0.2793 0.223444,-0.47481 0.09776,-0.19552 0.167583,-0.33517 0.08379,-0.15362 0.195513,-0.33516 0.111722,-0.18155 0.251374,-0.41896 0.153618,-0.25138 0.391027,-0.65637 0.265339,-0.47482 0.488783,-0.75412 0.237409,-0.27931 0.488784,-0.47482 0.265339,-0.20948 0.572574,-0.39103 0.321201,-0.18154 0.754123,-0.46085 0.516714,-0.30723 1.047393,-0.36309 0.544644,-0.0698 1.033427,0.0838 0.488784,0.15361 0.87981,0.53068 0.404992,0.36309 0.642401,0.90774 0.223444,0.54464 0.237409,1.2848 0.02793,0.72619 -0.09776,1.49428 -0.125687,0.76809 -0.377061,1.49428 -0.251374,0.71223 -0.558609,1.22894 z m -3.84044,-0.20948 q 0.628435,-0.13965 1.005497,-0.54464 0.391026,-0.40499 0.58654,-0.94964 0.195513,-0.54464 0.223443,-1.15911 0.02793,-0.62844 -0.06983,-1.21498 -0.3212,0.54464 -0.58654,1.13118 -0.251374,0.58654 -0.474818,1.08929 -0.181548,0.405 -0.363096,0.82395 -0.167583,0.40499 -0.3212,0.82395 z"
             style="font-style:normal;font-variant:normal;font-weight:bold;font-stretch:normal;font-family:Knewave;-inkscape-font-specification:'Knewave Bold';fill:#fcff19;fill-opacity:1;stroke-width:0.52369636px"
             id="path1221" />
          <path
             d="m 30.104816,144.13778 q 0.195513,-0.50275 0.544644,-0.75412 0.363096,-0.26534 0.684297,-0.3212 0.335166,-0.0698 0.544644,0.0698 0.223444,0.13966 0.153618,0.43293 0.139652,-0.13966 0.404992,-0.29327 0.265339,-0.15362 0.558609,-0.27931 0.307235,-0.13965 0.600505,-0.22344 0.29327,-0.0838 0.502749,-0.0698 0.209478,0 0.29327,0.11172 0.08379,0.11172 -0.02793,0.37706 0.237409,0.0419 0.349131,0.30724 0.111722,0.26534 0.02793,0.58654 -0.08379,0.3212 -0.377062,0.62843 -0.29327,0.30724 -0.851879,0.43293 -0.432922,0.0977 -0.768088,0.50275 -0.321201,0.39102 -0.572575,0.99153 -0.251374,0.58654 -0.432922,1.31273 -0.181548,0.72619 -0.321201,1.48031 -0.05586,0.34914 -0.3212,0.62844 -0.251374,0.29327 -0.58654,0.47482 -0.335166,0.19551 -0.712227,0.26534 -0.377061,0.0698 -0.684297,-0.014 -0.29327,-0.0838 -0.474818,-0.33516 -0.181548,-0.25138 -0.139652,-0.71223 0.01396,-0.33517 0.153617,-0.87981 0.153618,-0.55861 0.349131,-1.13118 0.195514,-0.58654 0.377062,-1.08929 0.181548,-0.51672 0.251374,-0.78206 l 0.474818,-1.71772 z"
             style="font-style:normal;font-variant:normal;font-weight:bold;font-stretch:normal;font-family:Knewave;-inkscape-font-specification:'Knewave Bold';fill:#fcff19;fill-opacity:1;stroke-width:0.52369636px"
             id="path1223" />
          <path
             d="m 36.668259,143.95623 q 0.139653,-0.0978 0.26534,-0.11172 0.139652,-0.0279 0.251374,-0.014 0.111722,0 0.195513,0.0279 0.09776,0.014 0.181548,0.014 0.125688,-0.26534 0.307236,-0.40499 0.181548,-0.13965 0.377061,-0.19551 0.195513,-0.0559 0.377061,-0.0559 0.195514,-0.014 0.335166,-0.0419 0.55861,-0.0838 1.047393,0 0.502748,0.0838 0.87981,0.29327 0.391026,0.20948 0.642401,0.54464 0.265339,0.3212 0.349131,0.74016 0.153617,0.57257 0.125687,1.27084 -0.01397,0.69826 -0.223444,1.42445 -0.209479,0.71223 -0.600505,1.38256 -0.391027,0.67033 -0.963602,1.17308 -0.502748,0.44689 -1.061358,0.55861 -0.558609,0.12569 -1.061358,0.15362 -0.391026,0 -0.768088,-0.014 -0.363096,0 -0.712227,-0.0698 -0.335165,-0.0698 -0.656366,-0.2374 -0.307235,-0.15362 -0.58654,-0.47482 -0.307235,-0.33517 -0.418957,-0.83792 -0.111722,-0.51671 -0.08379,-1.10325 0.0419,-0.60051 0.195513,-1.21498 0.167583,-0.61447 0.404992,-1.15911 0.251374,-0.55861 0.558609,-0.99153 0.307236,-0.43292 0.642401,-0.65637 z m 2.457882,2.80701 q -0.349131,0.11173 -0.656366,0.0978 -0.153618,0.15362 -0.279305,0.33517 -0.111722,0.16758 -0.474818,0.43292 -0.02793,0.0279 -0.02793,0 -0.237409,0.33516 -0.391027,0.69826 -0.153618,0.34913 0,0.71223 0.153618,0.014 0.363096,0.0279 0.223444,0.014 0.377062,-0.0279 0.34913,-0.11172 0.572574,-0.34913 0.237409,-0.23741 0.363096,-0.54465 0.125687,-0.3212 0.153618,-0.67033 0.0419,-0.36309 0,-0.71223 z"
             style="font-style:normal;font-variant:normal;font-weight:bold;font-stretch:normal;font-family:Knewave;-inkscape-font-specification:'Knewave Bold';fill:#fcff19;fill-opacity:1;stroke-width:0.52369636px"
             id="path1225" />
          <path
             d="m 47.462514,143.56521 q 0.29327,0.11172 0.530679,0.3212 0.237409,0.20947 0.404992,0.46085 0.06983,-0.12569 0.209479,-0.27931 0.153617,-0.15361 0.418957,-0.15361 0.29327,0.16758 0.488783,0.46085 0.195513,0.29327 0.26534,0.62843 0.06983,0.33517 -0.01397,0.69827 -0.06983,0.34913 -0.3212,0.65636 -0.01396,0.014 0,0.11172 0.01396,0.0978 0.02793,0.22345 0.02793,0.11172 0.0419,0.20948 0.01397,0.0978 0.01397,0.11172 0.0419,0.78205 -0.0419,1.38256 -0.06983,0.6005 -0.223444,1.10325 -0.139653,0.50275 -0.349131,0.93567 -0.195513,0.43292 -0.404992,0.87981 -0.391027,0.86585 -0.935671,1.50825 -0.544644,0.6424 -1.228941,1.01946 -0.670331,0.37706 -1.480315,0.47482 -0.809983,0.11172 -1.731689,-0.12569 -0.139652,-0.0559 -0.307235,-0.13965 -0.153618,-0.0698 -0.307235,-0.18155 -0.153618,-0.0978 -0.279305,-0.26534 -0.125687,-0.15362 -0.209479,-0.39103 -0.06983,-0.22344 -0.01396,-0.48878 0.0419,-0.25137 0.209479,-0.41896 0.167582,-0.16758 0.446887,-0.19551 0.29327,-0.0279 0.712227,0.20948 0.26534,0.0559 0.474818,0.0279 0.223444,-0.014 0.404992,-0.0838 0.181548,-0.0698 0.349131,-0.16759 0.181548,-0.0838 0.377061,-0.18154 0.349131,-0.18155 0.628436,-0.50275 0.279305,-0.3212 0.488783,-0.62844 0.195514,-0.2793 0.349131,-0.58654 0.153618,-0.29327 0.29327,-0.61447 -0.209478,0.26534 -0.474818,0.39103 -0.265339,0.13965 -0.558609,0.19551 -0.29327,0.0559 -0.614471,0.0419 -0.3212,0 -0.656366,-0.014 -0.460853,-0.014 -0.782053,-0.26534 -0.3212,-0.25137 -0.516714,-0.65636 -0.195513,-0.40499 -0.265339,-0.92171 -0.05586,-0.53068 0,-1.07532 0.06983,-0.54465 0.251374,-1.07533 0.181548,-0.54464 0.488783,-0.99153 0.377062,-0.55861 0.85188,-0.93567 0.474818,-0.39102 0.977566,-0.58654 0.516714,-0.20948 1.033428,-0.23741 0.516714,-0.0279 0.977566,0.11173 z m -0.768088,3.95216 q 0,-0.0419 0.01397,-0.0698 -0.06983,-0.0279 -0.139653,-0.0419 -0.06983,-0.0279 -0.139652,-0.0559 -0.29327,-0.0838 -0.600505,0.0419 -0.307236,0.11172 -0.544645,0.3212 -0.223443,0.19551 -0.363096,0.41896 -0.125687,0.22344 -0.05586,0.34913 0.111722,0.18155 0.349131,0.15362 0.237409,-0.0419 0.502749,-0.20948 0.279304,-0.16759 0.544644,-0.40499 0.265339,-0.25138 0.432922,-0.50275 z"
             style="font-style:normal;font-variant:normal;font-weight:bold;font-stretch:normal;font-family:Knewave;-inkscape-font-specification:'Knewave Bold';fill:#fcff19;fill-opacity:1;stroke-width:0.52369636px"
             id="path1227" />
          <path
             d="m 52.10552,144.13778 q 0.195513,-0.50275 0.544644,-0.75412 0.363096,-0.26534 0.684297,-0.3212 0.335165,-0.0698 0.544644,0.0698 0.223444,0.13966 0.153618,0.43293 0.139652,-0.13966 0.404991,-0.29327 0.26534,-0.15362 0.55861,-0.27931 0.307235,-0.13965 0.600505,-0.22344 0.29327,-0.0838 0.502749,-0.0698 0.209478,0 0.29327,0.11172 0.08379,0.11172 -0.02793,0.37706 0.237409,0.0419 0.349131,0.30724 0.111722,0.26534 0.02793,0.58654 -0.08379,0.3212 -0.377061,0.62843 -0.29327,0.30724 -0.851879,0.43293 -0.432923,0.0977 -0.768088,0.50275 -0.321201,0.39102 -0.572575,0.99153 -0.251374,0.58654 -0.432922,1.31273 -0.181548,0.72619 -0.321201,1.48031 -0.05586,0.34914 -0.3212,0.62844 -0.251375,0.29327 -0.58654,0.47482 -0.335166,0.19551 -0.712227,0.26534 -0.377062,0.0698 -0.684297,-0.014 -0.29327,-0.0838 -0.474818,-0.33516 -0.181548,-0.25138 -0.139652,-0.71223 0.01396,-0.33517 0.153617,-0.87981 0.153618,-0.55861 0.349131,-1.13118 0.195514,-0.58654 0.377062,-1.08929 0.181548,-0.51672 0.251374,-0.78206 l 0.474818,-1.71772 z"
             style="font-style:normal;font-variant:normal;font-weight:bold;font-stretch:normal;font-family:Knewave;-inkscape-font-specification:'Knewave Bold';fill:#fcff19;fill-opacity:1;stroke-width:0.52369636px"
             id="path1229" />
          <path
             d="m 61.839071,143.16021 q 0.139652,0.0279 0.349131,0.0698 0.223444,0.0419 0.418957,0.12569 0.209478,0.0838 0.349131,0.22344 0.153617,0.13965 0.153617,0.34913 0.01397,0 0.02793,0.014 0.01396,0 0.02793,0 0.02793,0 0.02793,0.014 0.209478,-0.0838 0.349131,0 0.153617,0.0698 0.251374,0.22345 0.09776,0.13965 0.153618,0.34913 0.05586,0.19551 0.08379,0.36309 0.01397,0.41896 -0.05586,1.0474 -0.05586,0.62843 -0.153617,1.31273 -0.08379,0.67033 -0.167583,1.31273 -0.08379,0.62844 -0.111722,1.04739 0.01396,0.26534 -0.167583,0.43292 -0.167583,0.16759 -0.432922,0.23741 -0.251375,0.0838 -0.55861,0.0698 -0.29327,0 -0.544644,-0.0838 -0.237409,-0.0838 -0.377061,-0.23741 -0.139653,-0.13965 -0.08379,-0.3631 -0.111722,0.20948 -0.223444,0.29327 -0.111722,0.0978 -0.391026,0.23741 -0.377062,0.18155 -0.977567,0.27931 -0.600505,0.11172 -1.20101,0.0559 -0.600505,-0.0419 -1.103254,-0.29327 -0.488783,-0.23741 -0.656366,-0.75412 -0.08379,-0.26534 -0.111722,-0.6843 -0.02793,-0.41896 0.01397,-0.89378 0.05586,-0.47481 0.181548,-0.97756 0.139653,-0.50275 0.377062,-0.93567 0.223444,-0.43293 0.628435,-0.86585 0.404992,-0.43292 0.87981,-0.80998 0.488784,-0.37706 1.019463,-0.67033 0.530679,-0.29327 1.033427,-0.41896 0.237409,-0.0698 0.488783,-0.0978 0.26534,-0.0279 0.502749,0.0279 z m -1.326698,4.49681 q 0.08379,-0.16758 0.09776,-0.23741 0.02793,-0.0838 0.0419,-0.16758 0.02793,-0.0838 0.05586,-0.23741 0.0419,-0.16758 0.153617,-0.51672 -0.516713,0.20948 -0.991531,0.51672 -0.460853,0.30723 -0.740158,0.62843 -0.279305,0.30724 -0.307235,0.58654 -0.01396,0.26534 0.391026,0.41896 0.363097,0.0978 0.572575,0.0419 0.223444,-0.0698 0.349131,-0.23741 0.139652,-0.18155 0.237409,-0.43292 0.09776,-0.25138 0.237409,-0.51672 -0.0419,0.0698 -0.08379,0.13965 -0.0419,0.0559 -0.01397,0.014 z"
             style="font-style:normal;font-variant:normal;font-weight:bold;font-stretch:normal;font-family:Knewave;-inkscape-font-specification:'Knewave Bold';fill:#fcff19;fill-opacity:1;stroke-width:0.52369636px"
             id="path1231" />
          <path
             d="m 66.652277,143.84451 q 0.02793,-0.26534 0.335166,-0.43292 0.307235,-0.16759 0.684296,-0.16759 0.377062,0 0.726193,0.18155 0.363096,0.16759 0.488783,0.58654 0.307235,-0.26534 0.684297,-0.48878 0.391026,-0.22344 0.768088,-0.30724 0.377061,-0.0838 0.712227,0 0.335165,0.0698 0.572574,0.39103 0.335166,-0.3212 0.726193,-0.54464 0.391026,-0.23741 0.851879,-0.34913 0.391027,-0.014 0.796019,0.0838 0.404991,0.0977 0.684296,0.3212 0.02793,0.0279 0.08379,0.0977 0.06983,0.0698 0.139652,0.15362 0.08379,0.0838 0.139652,0.16758 0.06983,0.0698 0.08379,0.11173 0.139652,0.22344 0.153617,0.71222 0.02793,0.47482 -0.02793,1.08929 -0.0419,0.61447 -0.153618,1.2848 -0.111722,0.67034 -0.251374,1.28481 -0.139652,0.61447 -0.29327,1.10325 -0.139652,0.48878 -0.251374,0.71223 -0.125687,0.23741 -0.26534,0.25137 -0.139652,0.0279 -0.265339,0 -0.111722,-0.0279 -0.209479,-0.0419 -0.08379,0 -0.09776,0.16759 -0.139653,0.18155 -0.377062,0.26534 -0.223444,0.0977 -0.488783,0.0977 -0.251374,0 -0.502749,-0.0977 -0.251374,-0.0838 -0.446887,-0.25138 -0.181548,-0.15361 -0.26534,-0.39102 -0.08379,-0.23741 0,-0.54465 0.111722,-0.41895 0.279305,-0.93567 0.167583,-0.53068 0.349131,-1.07532 0.195513,-0.55861 0.391027,-1.08929 0.195513,-0.53068 0.363096,-0.9636 -0.167583,0.19551 -0.363096,0.53068 -0.195514,0.3212 -0.391027,0.67033 -0.195513,0.34913 -0.377061,0.67033 -0.167583,0.3212 -0.29327,0.50275 -0.237409,0.47482 -0.391027,0.75412 -0.153618,0.26534 -0.474818,0.46085 -0.195513,0.12569 -0.418957,0.16759 -0.209479,0.0419 -0.418957,0.014 -0.195514,-0.0279 -0.377062,-0.12568 -0.167583,-0.0978 -0.265339,-0.26534 -0.0419,-0.11173 -0.08379,-0.22345 -0.04189,-0.11172 -0.06983,-0.30723 -0.01396,-0.20948 0,-0.53068 0.02793,-0.33517 0.111722,-0.87981 -0.0419,0.0559 -0.02793,0.0419 0.01396,-0.014 0.04189,-0.0419 0.0419,-0.0419 0.06983,-0.0559 0.02793,-0.0279 0,0.014 -0.251375,0.3631 -0.404992,0.58654 -0.153618,0.22345 -0.26534,0.44689 -0.111722,0.20948 -0.237409,0.48878 -0.125687,0.26534 -0.335166,0.71223 -0.125687,0.26534 -0.223443,0.54464 -0.09776,0.27931 -0.251375,0.53068 -0.139652,0.26534 -0.391026,0.48879 -0.237409,0.22344 -0.670332,0.36309 -0.139652,0.0419 -0.474818,0.0559 -0.335165,0.0279 -0.670331,-0.014 -0.3212,-0.0419 -0.558609,-0.16758 -0.237409,-0.11173 -0.195514,-0.34914 0.09776,-0.48878 0.29327,-1.13118 0.195514,-0.6424 0.404992,-1.34066 0.223444,-0.69826 0.432922,-1.39653 0.209479,-0.69826 0.335166,-1.29876 0.09776,-0.25138 0.167583,-0.51672 0.08379,-0.26534 0.153618,-0.46085 0.08379,-0.20948 0.195513,-0.30723 0.111722,-0.0978 0.307235,-0.014 z m 4.762146,3.617 q 0.04189,-0.0838 0.06983,-0.13966 0.0419,-0.0559 0.01396,-0.0279 z"
             style="font-style:normal;font-variant:normal;font-weight:bold;font-stretch:normal;font-family:Knewave;-inkscape-font-specification:'Knewave Bold';fill:#fcff19;fill-opacity:1;stroke-width:0.52369636px"
             id="path1233" />
          <path
             d="m 77.895384,143.84451 q 0.02793,-0.26534 0.335166,-0.43292 0.307235,-0.16759 0.684296,-0.16759 0.377062,0 0.726192,0.18155 0.363097,0.16759 0.488784,0.58654 0.307235,-0.26534 0.684296,-0.48878 0.391027,-0.22344 0.768088,-0.30724 0.377062,-0.0838 0.712227,0 0.335166,0.0698 0.572575,0.39103 0.335166,-0.3212 0.726192,-0.54464 0.391027,-0.23741 0.85188,-0.34913 0.391027,-0.014 0.796018,0.0838 0.404992,0.0977 0.684297,0.3212 0.02793,0.0279 0.08379,0.0977 0.06983,0.0698 0.139653,0.15362 0.08379,0.0838 0.139652,0.16758 0.06983,0.0698 0.08379,0.11173 0.139652,0.22344 0.153617,0.71222 0.02793,0.47482 -0.02793,1.08929 -0.0419,0.61447 -0.153618,1.2848 -0.111722,0.67034 -0.251374,1.28481 -0.139653,0.61447 -0.29327,1.10325 -0.139653,0.48878 -0.251374,0.71223 -0.125688,0.23741 -0.26534,0.25137 -0.139652,0.0279 -0.265339,0 -0.111722,-0.0279 -0.209479,-0.0419 -0.08379,0 -0.09776,0.16759 -0.139652,0.18155 -0.377061,0.26534 -0.223444,0.0977 -0.488783,0.0977 -0.251375,0 -0.502749,-0.0977 -0.251374,-0.0838 -0.446887,-0.25138 -0.181548,-0.15361 -0.26534,-0.39102 -0.08379,-0.23741 0,-0.54465 0.111722,-0.41895 0.279305,-0.93567 0.167583,-0.53068 0.349131,-1.07532 0.195513,-0.55861 0.391026,-1.08929 0.195514,-0.53068 0.363097,-0.9636 -0.167583,0.19551 -0.363097,0.53068 -0.195513,0.3212 -0.391026,0.67033 -0.195514,0.34913 -0.377062,0.67033 -0.167582,0.3212 -0.29327,0.50275 -0.237409,0.47482 -0.391026,0.75412 -0.153618,0.26534 -0.474818,0.46085 -0.195514,0.12569 -0.418957,0.16759 -0.209479,0.0419 -0.418957,0.014 -0.195514,-0.0279 -0.377062,-0.12568 -0.167583,-0.0978 -0.265339,-0.26534 -0.0419,-0.11173 -0.08379,-0.22345 -0.04189,-0.11172 -0.06983,-0.30723 -0.01396,-0.20948 0,-0.53068 0.02793,-0.33517 0.111722,-0.87981 -0.0419,0.0559 -0.02793,0.0419 0.01397,-0.014 0.0419,-0.0419 0.0419,-0.0419 0.06983,-0.0559 0.02793,-0.0279 0,0.014 -0.251374,0.3631 -0.404991,0.58654 -0.153618,0.22345 -0.26534,0.44689 -0.111722,0.20948 -0.237409,0.48878 -0.125687,0.26534 -0.335166,0.71223 -0.125687,0.26534 -0.223443,0.54464 -0.09776,0.27931 -0.251375,0.53068 -0.139652,0.26534 -0.391026,0.48879 -0.237409,0.22344 -0.670332,0.36309 -0.139652,0.0419 -0.474818,0.0559 -0.335165,0.0279 -0.670331,-0.014 -0.321201,-0.0419 -0.55861,-0.16758 -0.237409,-0.11173 -0.195513,-0.34914 0.09776,-0.48878 0.29327,-1.13118 0.195513,-0.6424 0.404992,-1.34066 0.223444,-0.69826 0.432922,-1.39653 0.209479,-0.69826 0.335166,-1.29876 0.09776,-0.25138 0.167583,-0.51672 0.08379,-0.26534 0.153617,-0.46085 0.08379,-0.20948 0.195514,-0.30723 0.111722,-0.0978 0.307235,-0.014 z m 4.762146,3.617 q 0.0419,-0.0838 0.06983,-0.13966 0.04189,-0.0559 0.01396,-0.0279 z"
             style="font-style:normal;font-variant:normal;font-weight:bold;font-stretch:normal;font-family:Knewave;-inkscape-font-specification:'Knewave Bold';fill:#fcff19;fill-opacity:1;stroke-width:0.52369636px"
             id="path1235" />
          <path
             d="m 89.040734,143.87244 q 0.09776,-0.25137 0.335166,-0.40499 0.237409,-0.15362 0.530679,-0.22345 0.307235,-0.0838 0.61447,-0.0698 0.321201,0.014 0.572575,0.11172 0.265339,0.0978 0.404992,0.27931 0.153617,0.18154 0.125687,0.44688 -0.153618,0.48879 -0.391027,1.20101 -0.223444,0.69826 -0.446887,1.45239 -0.209479,0.74016 -0.391027,1.45238 -0.181548,0.71223 -0.237409,1.21498 -0.08379,0.50275 -0.195513,0.78205 -0.111722,0.27931 -0.237409,0.40499 -0.125687,0.13966 -0.26534,0.16759 -0.139652,0.0279 -0.265339,0.0279 -0.125687,0.014 -0.237409,0.0419 -0.09776,0.0279 -0.167583,0.15362 -0.06983,0.13965 -0.26534,0.20948 -0.195513,0.0838 -0.432922,0.0698 -0.223444,0 -0.460853,-0.11172 -0.237409,-0.0977 -0.404992,-0.30723 -0.167583,-0.19552 -0.223443,-0.51672 -0.05586,-0.30723 0.06983,-0.74015 0.04189,-0.27931 0.139652,-0.71223 0.111722,-0.44689 0.251374,-0.9636 0.153618,-0.53068 0.335166,-1.08929 0.195513,-0.57258 0.391027,-1.10325 0.209478,-0.53068 0.418957,-0.99154 0.223444,-0.46085 0.432922,-0.78205 z m 2.569604,-2.08082 q -0.684297,0.0838 -1.075324,-0.11172 -0.391026,-0.20948 -0.460852,-0.51672 -0.06983,-0.3212 0.181548,-0.65636 0.265339,-0.34913 0.865844,-0.53068 l 0.06983,-0.014 q 0.279304,-0.0279 0.404991,-0.0279 0.125688,0 0.307236,0.0559 0.265339,0.0279 0.404991,0.15362 0.139653,0.11172 0.195514,0.25138 0.195513,0.30723 0.02793,0.69826 -0.153617,0.39102 -0.851879,0.68429 z"
             style="font-style:normal;font-variant:normal;font-weight:bold;font-stretch:normal;font-family:Knewave;-inkscape-font-specification:'Knewave Bold';fill:#fcff19;fill-opacity:1;stroke-width:0.52369636px"
             id="path1237" />
          <path
             d="m 93.758362,144.48691 q 0.195514,-0.29327 0.307236,-0.44689 0.111721,-0.15361 0.181548,-0.19551 0.08379,-0.0559 0.139652,-0.0279 0.05586,0.014 0.139652,0.0559 0.55861,-0.22344 0.837915,-0.18155 0.29327,0.0279 0.418957,0.18155 0.125687,0.13965 0.139652,0.3212 0.02793,0.16758 0.02793,0.20948 v 0.0698 q 0.251375,-0.29327 0.740158,-0.55861 0.488783,-0.26534 1.061358,-0.44689 0.58654,-0.18155 1.17308,-0.25138 0.600505,-0.0838 1.061358,0.014 0.600502,0.12569 0.907742,0.53068 0.30723,0.39103 0.36309,0.9636 0.0698,0.57257 -0.0698,1.27084 -0.13965,0.69826 -0.40499,1.42445 -0.19552,0.41896 -0.30724,0.6843 -0.0978,0.25137 -0.19551,0.46085 -0.0838,0.20948 -0.20948,0.41896 -0.125688,0.20948 -0.349132,0.51671 -0.223443,0.41896 -0.698261,0.6424 -0.460853,0.22345 -0.921706,0.25138 -0.446888,0.0419 -0.740158,-0.13966 -0.29327,-0.16758 -0.167582,-0.54464 0.3212,-0.86585 0.530679,-1.57807 0.209478,-0.71223 0.432922,-1.21498 0.111722,-0.39102 0.111722,-0.6005 0.01397,-0.20948 -0.05586,-0.29327 -0.06983,-0.0838 -0.195513,-0.0559 -0.111722,0.0279 -0.23741,0.11172 -0.125687,0.0698 -0.237409,0.18155 -0.09776,0.11172 -0.139652,0.19551 -0.09776,0.0698 -0.251374,0.2793 -0.139653,0.20948 -0.321201,0.51672 -0.181548,0.29327 -0.377061,0.65636 -0.195513,0.34913 -0.391027,0.69827 -0.181548,0.33516 -0.349131,0.62843 -0.153617,0.29327 -0.265339,0.47482 -0.125687,0.20948 -0.223444,0.26534 -0.08379,0.0698 -0.153617,0.0838 -0.05586,0.0279 -0.09776,0.0559 -0.0419,0.0279 -0.06983,0.18155 -0.02793,0.15362 -0.209479,0.2793 -0.181548,0.12569 -0.460853,0.19552 -0.265339,0.0698 -0.58654,0.0838 -0.3212,0.0279 -0.628435,-0.014 -0.307235,-0.0419 -0.572575,-0.15361 -0.265339,-0.11173 -0.418957,-0.30724 -0.09776,-0.19551 -0.01396,-0.6843 0.06983,-0.48878 0.237409,-1.10325 0.181548,-0.62844 0.418957,-1.31273 0.237409,-0.6843 0.460853,-1.27084 0.223443,-0.58654 0.391026,-1.0055 0.181548,-0.41895 0.237409,-0.51671 z"
             style="font-style:normal;font-variant:normal;font-weight:bold;font-stretch:normal;font-family:Knewave;-inkscape-font-specification:'Knewave Bold';fill:#fcff19;fill-opacity:1;stroke-width:0.52369636px"
             id="path1239" />
          <path
             d="m 106.74385,143.56521 q 0.29327,0.11172 0.53068,0.3212 0.23741,0.20947 0.40499,0.46085 0.0698,-0.12569 0.20948,-0.27931 0.15362,-0.15361 0.41896,-0.15361 0.29327,0.16758 0.48878,0.46085 0.19552,0.29327 0.26534,0.62843 0.0698,0.33517 -0.014,0.69827 -0.0698,0.34913 -0.3212,0.65636 -0.014,0.014 0,0.11172 0.014,0.0978 0.0279,0.22345 0.0279,0.11172 0.0419,0.20948 0.014,0.0978 0.014,0.11172 0.0419,0.78205 -0.0419,1.38256 -0.0698,0.6005 -0.22344,1.10325 -0.13965,0.50275 -0.34913,0.93567 -0.19551,0.43292 -0.40499,0.87981 -0.39103,0.86585 -0.93567,1.50825 -0.54465,0.6424 -1.22894,1.01946 -0.67034,0.37706 -1.48032,0.47482 -0.80998,0.11172 -1.73169,-0.12569 -0.13965,-0.0559 -0.30723,-0.13965 -0.15362,-0.0698 -0.30724,-0.18155 -0.15362,-0.0978 -0.2793,-0.26534 -0.12569,-0.15362 -0.20948,-0.39103 -0.0698,-0.22344 -0.014,-0.48878 0.0419,-0.25137 0.20948,-0.41896 0.16758,-0.16758 0.44689,-0.19551 0.29327,-0.0279 0.71222,0.20948 0.26534,0.0559 0.47482,0.0279 0.22345,-0.014 0.40499,-0.0838 0.18155,-0.0698 0.34914,-0.16759 0.18154,-0.0838 0.37706,-0.18154 0.34913,-0.18155 0.62843,-0.50275 0.27931,-0.3212 0.48879,-0.62844 0.19551,-0.2793 0.34913,-0.58654 0.15361,-0.29327 0.29327,-0.61447 -0.20948,0.26534 -0.47482,0.39103 -0.26534,0.13965 -0.55861,0.19551 -0.29327,0.0559 -0.61447,0.0419 -0.3212,0 -0.65637,-0.014 -0.46085,-0.014 -0.78205,-0.26534 -0.3212,-0.25137 -0.51671,-0.65636 -0.19552,-0.40499 -0.26534,-0.92171 -0.0559,-0.53068 0,-1.07532 0.0698,-0.54465 0.25137,-1.07533 0.18155,-0.54464 0.48878,-0.99153 0.37707,-0.55861 0.85188,-0.93567 0.47482,-0.39102 0.97757,-0.58654 0.51671,-0.20948 1.03343,-0.23741 0.51671,-0.0279 0.97756,0.11173 z m -0.76808,3.95216 q 0,-0.0419 0.014,-0.0698 -0.0698,-0.0279 -0.13965,-0.0419 -0.0698,-0.0279 -0.13965,-0.0559 -0.29327,-0.0838 -0.60051,0.0419 -0.30723,0.11172 -0.54464,0.3212 -0.22345,0.19551 -0.3631,0.41896 -0.12569,0.22344 -0.0559,0.34913 0.11172,0.18155 0.34913,0.15362 0.23741,-0.0419 0.50275,-0.20948 0.2793,-0.16759 0.54464,-0.40499 0.26534,-0.25138 0.43293,-0.50275 z"
             style="font-style:normal;font-variant:normal;font-weight:bold;font-stretch:normal;font-family:Knewave;-inkscape-font-specification:'Knewave Bold';fill:#fcff19;fill-opacity:1;stroke-width:0.52369636px"
             id="path1241" />
        </g>
      </g>
      <g
         transform="translate(-39.979402,-41.491477)"
         id="g2067">
        <g
           transform="translate(0,-7.576144)"
           id="g2065">
          <path
             style="display:inline;opacity:1;fill:#ec6864;fill-opacity:1;fill-rule:nonzero;stroke:#ec6864;stroke-width:1.32291663;stroke-linecap:round;stroke-linejoin:round;stroke-miterlimit:4;stroke-dasharray:none;stroke-dashoffset:0;stroke-opacity:1;paint-order:normal"
             id="path2053"
             d="m 6.34386,119.75753 -14.8664866,-16.54879 9.9261606,16.56924 -7.4528509,-18.14613 2.7381857,20.74574 -3.0995504,-21.59465 -1.8916498,20.37849 -0.8080199,-17.03354 -3.9961707,15.79488 6.0065825,-16.06914 -13.5151215,17.12895 12.8843908,-17.36006 -15.5324808,13.26994 15.0626499,-16.65208 -16.7996869,12.59343 16.7530501,-10.44216 -20.0266101,5.17898 21.286465,-5.71756 -22.539267,-0.54241 22.769823,1.0243 -23.445654,-7.371507 22.642746,6.142277 L -25.186341,91.728491 -7.0511137,102.74023 -23.858085,85.515303 -10.36878,100.45274 -18.133558,84.541427 -9.5120677,103.16253 -13.871185,81.802955 -7.2742028,102.99238 -7.9100059,79.47921 -8.3667409,100.74059 -2.1166846,80.233434 -10.146856,102.9849 1.4021147,83.557012 -6.6832287,102.49902 4.0712397,84.542744 -7.2060487,100.10406 11.190288,90.731863 -7.8824249,100.18148 10.386029,93.423895 -9.2164329,100.42492 11.186135,98.012592 -7.8365067,100.45368 14.774179,106.28097 -9.6775972,103.23988 12.731811,109.98258 -8.8051728,102.03996 10.72425,113.93351 -8.353081,102.29222 Z"
             transform="translate(134.1693,37.685003)" />
          <g
             aria-label="PureScript"
             style="font-style:normal;font-variant:normal;font-weight:normal;font-stretch:normal;font-size:15.53392315px;line-height:125%;font-family:Pacifico;-inkscape-font-specification:Pacifico;text-align:start;letter-spacing:1.89902198px;word-spacing:0px;writing-mode:lr-tb;direction:ltr;text-anchor:start;display:inline;fill:#fafafa;fill-opacity:1;stroke:#fafafa;stroke-width:0.5;stroke-linecap:butt;stroke-linejoin:miter;stroke-miterlimit:4;stroke-dasharray:none;stroke-opacity:1"
             id="text2059">
            <path
               d="m 70.150654,113.61981 q 1.180104,0.48074 1.93355,1.16442 0.763332,0.67951 1.135906,1.45374 0.375435,0.7672 0.390029,1.57578 0.02162,0.81144 -0.278846,1.54901 -0.280432,0.68839 -0.822069,1.254 -0.541638,0.5656 -1.314305,0.91424 -0.765642,0.3515 -1.756332,0.43114 -0.983665,0.0825 -2.155177,-0.19817 -0.229967,0.50419 -0.41857,0.92696 -0.08142,0.17977 -0.16285,0.35955 -0.08142,0.17977 -0.151404,0.33145 -0.06009,0.14751 -0.112902,0.25704 -0.04578,0.11239 -0.06295,0.15454 -0.214357,0.48598 -0.537202,0.97692 -0.312959,0.48677 -0.715674,0.9124 -0.395692,0.4285 -0.859808,0.7636 -0.459954,0.34499 -0.969603,0.5305 -0.505487,0.19539 -1.042198,0.20608 -0.539573,0.0177 -1.080454,-0.20264 -0.576003,-0.23464 -0.909543,-0.72269 -0.329378,-0.47817 -0.467543,-1.12415 -0.131141,-0.64311 -0.100985,-1.4007 0.03718,-0.75472 0.181545,-1.53131 0.147227,-0.78361 0.374585,-1.54276 0.234382,-0.7563 0.497645,-1.40255 0.452125,-1.10985 1.076482,-2.05946 0.624357,-0.94961 1.369955,-1.69421 0.74846,-0.75163 1.592665,-1.27588 0.844206,-0.52424 1.736029,-0.78339 0.898847,-0.25629 1.809931,-0.22093 0.92097,0.0312 1.820097,0.39747 z m -7.448213,6.22067 q -0.117323,0.288 -0.317632,0.77971 -0.190423,0.48754 -0.381364,1.05678 -0.19094,0.56924 -0.345458,1.1697 -0.154517,0.60045 -0.195866,1.12416 -0.03146,0.51954 0.07313,0.90613 0.114483,0.38244 0.45868,0.52265 0.358245,0.14594 0.711279,0.003 0.355895,-0.14986 0.684729,-0.47455 0.331695,-0.33172 0.633207,-0.79039 0.304374,-0.4657 0.559577,-0.95142 0.255203,-0.48573 0.455252,-0.9366 0.202912,-0.45789 0.334543,-0.78101 l 0.134494,-0.33015 q -0.488597,-0.46931 -0.75423,-0.78228 -0.258609,-0.3101 -0.36138,-0.54034 -0.10277,-0.23024 -0.0804,-0.42588 0.03225,-0.19981 0.129547,-0.43864 0.05151,-0.12644 0.107179,-0.24299 0.05853,-0.12358 0.12383,-0.20345 0.07518,-0.084 0.154272,-0.11734 0.08897,-0.0375 0.19434,0.005 0.07024,0.0286 0.114994,0.0796 0.05177,0.0538 0.12306,0.14022 0.180298,0.22087 0.335619,0.38243 0.158182,0.15453 0.271616,0.25807 0.131645,0.11915 0.246638,0.19875 0.0372,-0.0913 0.145939,-0.35824 0.118625,-0.27109 0.293964,-0.60098 0.185224,-0.33405 0.431065,-0.67617 0.245842,-0.34212 0.550223,-0.58668 0.30438,-0.24456 0.668342,-0.33381 0.366824,-0.0963 0.781265,0.0726 0.12644,0.0515 0.248458,0.13398 0.124879,0.0754 0.20163,0.18861 0.08664,0.109 0.111096,0.25001 0.03148,0.14387 -0.04005,0.31948 -0.02003,0.0492 -0.03564,0.0674 -0.0057,0.0141 -0.01717,0.0422 l -1.16391,1.63072 -0.289282,0.52917 q 0.731317,0.17507 1.324483,0.14643 0.593165,-0.0286 1.045059,-0.2131 0.458918,-0.1816 0.767979,-0.49797 0.316086,-0.3135 0.479194,-0.7139 0.160247,-0.39336 0.17168,-0.86373 0.02132,-0.47454 -0.213621,-0.96337 -0.23494,-0.48884 -0.771406,-0.96127 -0.536466,-0.47244 -1.484763,-0.85875 -0.709467,-0.28902 -1.397071,-0.24971 -0.684742,0.0323 -1.323168,0.31275 -0.638426,0.28048 -1.220391,0.76413 -0.581964,0.48366 -1.085877,1.09739 -0.494027,0.60957 -0.902718,1.31124 -0.398805,0.6975 -0.684961,1.39995 z"
               style="font-style:normal;font-variant:normal;font-weight:normal;font-stretch:normal;font-family:Pacifico;-inkscape-font-specification:Pacifico;text-align:start;writing-mode:lr-tb;direction:ltr;text-anchor:start;fill:#fafafa;fill-opacity:1;stroke:#fafafa;stroke-width:0.5;stroke-miterlimit:4;stroke-dasharray:none;stroke-opacity:1"
               id="path1244" />
            <path
               d="m 78.095934,122.97902 q -0.04893,0.19886 -0.178305,0.53415 -0.12756,0.32792 -0.302704,0.72225 -0.165967,0.38878 -0.432539,0.93246 -0.257395,0.53812 -0.423477,0.89562 -0.158717,0.35932 -0.273591,0.63569 -0.11306,0.269 -0.140246,0.37948 -0.05075,0.20622 -0.08688,0.3848 -0.03432,0.17121 -0.03011,0.31285 0.006,0.13427 0.06154,0.22605 0.06471,0.0862 0.212011,0.12247 0.162035,0.0399 0.410292,0.015 0.255623,-0.023 0.546028,-0.0922 0.299583,-0.0747 0.61378,-0.17704 0.31601,-0.1097 0.606183,-0.24139 0.297539,-0.12988 0.541709,-0.26508 0.253347,-0.14074 0.418427,-0.27197 -0.05981,0.24305 -0.108741,0.44191 -0.04157,0.20068 -0.08688,0.38481 -0.0435,0.17676 -0.09062,0.36826 -0.03976,0.19331 -0.09775,0.42899 -0.201907,0.12217 -0.490268,0.24649 -0.280996,0.12613 -0.620913,0.23777 -0.332553,0.11345 -0.705672,0.20129 -0.365754,0.0897 -0.729811,0.14068 -0.362245,0.0437 -0.70625,0.0449 -0.342193,-0.006 -0.622071,-0.075 -0.279879,-0.0689 -0.451554,-0.22828 -0.171676,-0.15941 -0.270047,-0.39452 -0.09101,-0.23329 -0.127061,-0.53118 -0.02688,-0.30344 -0.01716,-0.66036 -0.350329,0.28092 -0.717432,0.50303 -0.36529,0.21475 -0.727188,0.35222 -0.354532,0.13929 -0.702046,0.18657 -0.338337,0.0417 -0.632946,-0.0308 -0.243052,-0.0598 -0.436707,-0.19339 -0.193656,-0.13357 -0.315935,-0.36675 -0.114913,-0.23137 -0.134542,-0.56427 -0.01782,-0.34026 0.09636,-0.80427 0.244784,-0.96303 0.504222,-1.44598 0.405817,-0.69688 0.963409,-2.13753 0.04192,-0.10686 0.12405,-0.28192 0.09131,-0.18063 0.211971,-0.38527 0.128022,-0.20283 0.287318,-0.40578 0.159296,-0.20295 0.344544,-0.35265 0.185249,-0.14969 0.398377,-0.22223 0.220493,-0.0707 0.457992,-0.0201 0.386732,0.11079 0.534384,0.24085 0.149464,0.1227 0.118654,0.24791 -0.162342,0.37405 -0.361162,0.83285 -0.191456,0.46062 -0.392088,0.92679 -0.200633,0.46616 -0.465278,1.03375 -0.257279,0.5694 -0.405006,0.91579 -0.147727,0.3464 -0.238924,0.55829 -0.08383,0.21371 -0.08564,0.22108 -0.03262,0.13257 -0.04134,0.26322 4.63e-4,0.12509 0.02846,0.23352 0.028,0.10844 0.09451,0.1873 0.06652,0.0789 0.176997,0.10604 0.162035,0.0399 0.351371,5.4e-4 0.191148,-0.0467 0.378324,-0.17249 0.190917,-0.10924 0.366756,-0.31593 0.174026,-0.19933 0.307254,-0.4868 l 1.797908,-3.81469 q 0.08032,-0.1677 0.367103,-0.22211 0.295958,-0.06 0.627393,0.0216 0.375626,0.0924 0.56396,0.27938 0.188334,0.18694 0.137588,0.39317 z"
               style="font-style:normal;font-variant:normal;font-weight:normal;font-stretch:normal;font-family:Pacifico;-inkscape-font-specification:Pacifico;text-align:start;writing-mode:lr-tb;direction:ltr;text-anchor:start;fill:#fafafa;fill-opacity:1;stroke:#fafafa;stroke-width:0.5;stroke-miterlimit:4;stroke-dasharray:none;stroke-opacity:1"
               id="path1246" />
            <path
               d="m 80.010811,128.79884 q 0.02592,-0.33273 0.0979,-0.76838 0.07257,-0.44322 0.171353,-0.93003 0.106349,-0.48623 0.229,-0.98641 0.130802,-0.50715 0.311689,-1.07126 0.181477,-0.57167 0.309826,-0.94967 0.12835,-0.37801 0.246096,-0.61989 0.07346,-0.16166 0.14161,-0.25525 0.06816,-0.0936 0.147898,-0.14064 0.0879,-0.054 0.202504,-0.0603 0.122759,-0.0133 0.296685,2.9e-4 0.196613,0.0153 0.300714,0.0463 0.112252,0.024 0.159295,0.1037 0.04763,0.0722 0.04459,0.20889 0.0045,0.13729 -0.01374,0.37172 -0.0218,0.27979 -0.09966,0.79106 -0.07787,0.51127 -0.09279,0.89811 l 0.08318,0.006 q 0.174804,-0.29069 0.439955,-0.76455 0.265151,-0.47386 0.540029,-0.77959 0.274877,-0.30572 0.609565,-0.50028 0.335277,-0.20212 0.751188,-0.16972 0.143678,0.0112 0.275671,0.0747 0.132582,0.056 0.223819,0.15438 0.0988,0.099 0.148691,0.23982 0.05048,0.13327 0.03752,0.29963 -0.01001,0.12856 -0.06609,0.36003 -0.05548,0.22392 -0.167531,0.58798 -0.112047,0.36405 -0.168708,0.60309 -0.05607,0.23148 -0.06844,0.39028 -0.02121,0.27224 0.01759,0.45785 0.0388,0.18561 0.113141,0.30552 0.0825,0.11294 0.184831,0.16656 0.109896,0.0542 0.230888,0.0636 0.34029,0.0265 0.715049,-0.0965 0.374758,-0.12296 0.691966,-0.28845 0.372498,-0.19161 0.734585,-0.44489 l -0.251277,1.76067 q -0.206627,0.11324 -0.468544,0.2526 -0.261918,0.13936 -0.560467,0.26066 -0.290398,0.11432 -0.608099,0.18847 -0.309549,0.0672 -0.627154,0.0424 -0.567151,-0.0442 -0.897331,-0.29814 -0.32959,-0.26152 -0.504899,-0.64796 -0.17472,-0.39401 -0.237092,-0.86295 -0.06178,-0.4765 -0.08517,-0.95762 l -0.120992,-0.009 -1.647556,3.668 q -0.128843,0.28667 -0.242465,0.47562 -0.105472,0.18198 -0.213203,0.29532 -0.107732,0.11333 -0.225286,0.15743 -0.116964,0.0365 -0.253081,0.0259 -0.310042,-0.0241 -0.489078,-0.16743 -0.178447,-0.15085 -0.267231,-0.37839 -0.08063,-0.23452 -0.09665,-0.51726 -0.0079,-0.28971 0.0157,-0.59219 z"
               style="font-style:normal;font-variant:normal;font-weight:normal;font-stretch:normal;font-family:Pacifico;-inkscape-font-specification:Pacifico;text-align:start;writing-mode:lr-tb;direction:ltr;text-anchor:start;fill:#fafafa;fill-opacity:1;stroke:#fafafa;stroke-width:0.5;stroke-miterlimit:4;stroke-dasharray:none;stroke-opacity:1"
               id="path1248" />
            <path
               d="m 90.884553,130.45584 q -0.710254,0.0623 -1.269266,-0.14749 -0.551456,-0.21049 -0.944378,-0.61001 -0.393585,-0.40708 -0.624656,-0.95785 -0.224179,-0.559 -0.279214,-1.18614 -0.03713,-0.42313 0.07049,-1.01886 0.106954,-0.60328 0.233399,-1.07122 0.134002,-0.4686 0.355096,-0.89917 0.220431,-0.43811 0.53326,-0.77774 0.319722,-0.34785 0.726937,-0.56633 0.414109,-0.22669 0.935465,-0.27244 0.42313,-0.0371 0.797748,0.0671 0.374617,0.10418 0.660955,0.33031 0.29323,0.21792 0.474849,0.55223 0.181619,0.33431 0.219414,0.76499 0.04111,0.46847 -0.217625,1.07746 -0.251179,0.60832 -0.622727,1.0597 -0.371549,0.45138 -0.909729,0.82602 -0.530623,0.37397 -1.172071,0.61299 0.131241,0.19407 0.248959,0.32079 0.125273,0.12606 0.245242,0.19167 0.119969,0.0656 0.243516,0.0852 0.131102,0.0189 0.274664,0.006 0.453353,-0.0398 0.936127,-0.26488 0.490331,-0.22577 0.942481,-0.53956 0.45215,-0.31378 0.847431,-0.66826 0.394618,-0.36204 0.6641,-0.67502 l 1.063561,0.92695 q -0.604578,0.74594 -1.306196,1.34049 -0.305011,0.25519 -0.663576,0.50747 -0.351009,0.25161 -0.751332,0.46186 -0.393431,0.20204 -0.829945,0.34694 -0.429621,0.13669 -0.882974,0.17647 z m -1.316577,-3.46308 q 0.272012,-0.0239 0.577424,-0.18772 0.312305,-0.17208 0.565088,-0.41507 0.260338,-0.24365 0.492304,-0.6371 0.231965,-0.39344 0.210747,-0.63523 -0.02984,-0.34002 -0.177517,-0.54787 -0.140124,-0.20851 -0.321465,-0.19259 -0.324903,0.0285 -0.548526,0.16996 -0.216068,0.14078 -0.357501,0.35116 -0.134541,0.20216 -0.210886,0.46012 -0.06945,0.24975 -0.166075,0.6237 -0.08907,0.3733 -0.08362,0.60885 0.0054,0.23556 0.02003,0.40179 z"
               style="font-style:normal;font-variant:normal;font-weight:normal;font-stretch:normal;font-family:Pacifico;-inkscape-font-specification:Pacifico;text-align:start;writing-mode:lr-tb;direction:ltr;text-anchor:start;fill:#fafafa;fill-opacity:1;stroke:#fafafa;stroke-width:0.5;stroke-miterlimit:4;stroke-dasharray:none;stroke-opacity:1"
               id="path1250" />
            <path
               d="m 98.142761,119.03028 q 0.112486,0.48781 0.481968,0.80737 0.376873,0.31786 0.919198,0.54308 0.548013,0.21613 1.207463,0.37542 0.66684,0.15759 1.36097,0.33223 0.69981,0.16556 1.3746,0.39137 0.68048,0.21671 1.25007,0.56019 0.57699,0.34177 0.98908,0.84611 0.41948,0.50263 0.58821,1.23434 0.15339,0.66518 0.0686,1.27632 -0.0865,0.60375 -0.36119,1.13413 -0.26729,0.52867 -0.69887,0.98626 -0.43157,0.45758 -0.97172,0.81566 -0.54015,0.35807 -1.16499,0.61892 -0.62313,0.26823 -1.28093,0.41992 -0.92387,0.21304 -1.84884,0.18503 -0.923259,-0.0206 -1.708896,-0.32205 -0.783933,-0.29405 -1.354625,-0.87858 -0.565006,-0.59362 -0.776344,-1.5101 -0.109077,-0.47302 -0.04307,-0.86187 0.0717,-0.39795 0.238888,-0.68559 0.172877,-0.29674 0.411682,-0.47635 0.237101,-0.187 0.466221,-0.23984 0.23651,-0.0545 0.422399,0.0427 0.191574,0.0881 0.254635,0.36162 0.02897,0.12564 0.03179,0.27289 0.0028,0.14724 0.0051,0.32576 0.0079,0.16942 0.02438,0.37579 0.01645,0.20637 0.07099,0.44288 0.119303,0.51737 0.442735,0.83977 0.323432,0.3224 0.771396,0.47597 0.447964,0.15358 0.985209,0.15423 0.53724,6.6e-4 1.08417,-0.12546 0.64302,-0.14828 1.25024,-0.45177 0.60722,-0.30348 1.04732,-0.72411 0.4401,-0.42063 0.65736,-0.92998 0.21555,-0.51675 0.0843,-1.08585 -0.12101,-0.52476 -0.5047,-0.87219 -0.37629,-0.34912 -0.92942,-0.58742 -0.54744,-0.2474 -1.21769,-0.41977 -0.67025,-0.17236 -1.36438,-0.34701 -0.694119,-0.17465 -1.37289,-0.38397 -0.680476,-0.21672 -1.250645,-0.52893 -0.562777,-0.31391 -0.970328,-0.76481 -0.401865,-0.45999 -0.555255,-1.12518 -0.143164,-0.62084 0.01442,-1.28768 0.163274,-0.67593 0.652864,-1.28701 0.495277,-0.62016 1.328801,-1.12373 0.833524,-0.50357 2.045643,-0.78308 0.76866,-0.17725 1.5532,-0.11686 0.79193,0.0587 1.46557,0.34703 0.67364,0.28835 1.15566,0.79213 0.48941,0.50208 0.65302,1.21161 0.0971,0.42129 0.0516,0.89883 -0.0382,0.47584 -0.2452,1.02954 -0.20304,0.53721 -0.51976,0.85155 -0.31102,0.30524 -0.60666,0.37341 -0.22173,0.0511 -0.39113,-0.0421 -0.17111,-0.10065 -0.23076,-0.35934 -0.0443,-0.19216 -0.0153,-0.4713 0.0273,-0.28653 0.16327,-0.67594 0.12457,-0.37121 0.15588,-0.67423 0.0296,-0.3104 -0.0266,-0.5543 -0.0869,-0.37694 -0.35863,-0.61008 -0.26602,-0.24223 -0.67249,-0.35088 -0.39908,-0.11036 -0.92382,-0.0905 -0.52475,0.0198 -1.12341,0.15787 -0.66519,0.15339 -1.124593,0.42279 -0.453717,0.2603 -0.730067,0.5809 -0.270664,0.3115 -0.365092,0.64464 -0.08704,0.33143 -0.02057,0.61967 z"
               style="font-style:normal;font-variant:normal;font-weight:normal;font-stretch:normal;font-family:Pacifico;-inkscape-font-specification:Pacifico;text-align:start;writing-mode:lr-tb;direction:ltr;text-anchor:start;fill:#fafafa;fill-opacity:1;stroke:#fafafa;stroke-width:0.5;stroke-miterlimit:4;stroke-dasharray:none;stroke-opacity:1"
               id="path1252" />
            <path
               d="m 112.79296,125.9259 q -0.68842,0.11413 -1.25439,-0.0534 -0.55849,-0.16882 -0.98089,-0.53703 -0.4224,-0.36822 -0.69503,-0.89965 -0.27263,-0.53144 -0.37311,-1.13755 -0.072,-0.434 -0.0228,-1.06491 0.0492,-0.63092 0.14685,-1.10842 0.10391,-0.48622 0.2901,-0.93996 0.19367,-0.45497 0.47953,-0.81759 0.29211,-0.37134 0.68137,-0.62039 0.38803,-0.25654 0.88937,-0.33966 0.42652,-0.0707 0.80803,0.004 0.38774,0.0664 0.68061,0.25621 0.30036,0.18855 0.49587,0.48674 0.20176,0.28946 0.26255,0.65612 0.0422,0.25441 0.0158,0.51251 -0.0264,0.2581 -0.16514,0.62708 -0.13997,0.36149 -0.30719,0.51223 -0.15974,0.1495 -0.39171,0.18795 -0.35917,0.0596 -0.49494,-0.11015 -0.22049,-0.2633 -0.19036,-0.49895 0.003,-0.12344 0.0429,-0.57605 0.005,-0.0623 -0.0372,-0.27062 -0.0298,-0.17959 -0.087,-0.29311 -0.0573,-0.11353 -0.18447,-0.0924 -0.30679,0.0509 -0.49898,0.2365 -0.19343,0.17814 -0.31088,0.44364 -0.1112,0.25678 -0.1889,0.71559 -0.0789,0.45133 -0.0979,0.75433 -0.0115,0.30175 0.0182,0.57361 0.0284,0.26438 0.0582,0.44397 0.0447,0.26938 0.13793,0.55376 0.10076,0.28315 0.28387,0.50651 0.18936,0.21464 0.44861,0.3408 0.25802,0.11869 0.62468,0.0579 0.35917,-0.0595 0.7572,-0.3485 0.39678,-0.29643 0.77496,-0.70511 0.38566,-0.40991 0.71526,-0.87973 0.3296,-0.46982 0.5544,-0.87613 l 0.66022,0.7824 q -0.42848,0.8937 -0.97527,1.63018 -0.23221,0.31528 -0.51927,0.62428 -0.27959,0.30776 -0.60527,0.56934 -0.31943,0.25286 -0.68745,0.44457 -0.36177,0.18299 -0.75836,0.24874 z"
               style="font-style:normal;font-variant:normal;font-weight:normal;font-stretch:normal;font-family:Pacifico;-inkscape-font-specification:Pacifico;text-align:start;writing-mode:lr-tb;direction:ltr;text-anchor:start;fill:#fafafa;fill-opacity:1;stroke:#fafafa;stroke-width:0.5;stroke-miterlimit:4;stroke-dasharray:none;stroke-opacity:1"
               id="path1254" />
            <path
               d="m 118.05762,123.71664 q 0.002,-0.33373 0.0422,-0.77344 0.0404,-0.44729 0.10385,-0.93996 0.071,-0.49264 0.15727,-1.00035 0.0939,-0.51526 0.23363,-1.09095 0.13979,-0.58327 0.24054,-0.96954 0.10076,-0.38628 0.20076,-0.63603 0.0616,-0.16652 0.12284,-0.26479 0.0612,-0.0983 0.13737,-0.15093 0.0838,-0.0602 0.19763,-0.0747 0.12148,-0.0221 0.29593,-0.0211 0.1972,0.001 0.30327,0.0244 0.11368,0.0158 0.16635,0.092 0.0527,0.0686 0.0595,0.20512 0.0144,0.13661 0.0131,0.37174 -0.002,0.28064 -0.0424,0.7962 -0.0408,0.51555 -0.0278,0.90246 l 0.0834,4.7e-4 q 0.15339,-0.30255 0.38368,-0.79429 0.2303,-0.49175 0.48241,-0.8165 0.25212,-0.32475 0.57191,-0.54294 0.31983,-0.22576 0.73699,-0.22344 0.14411,8e-4 0.28034,0.0547 0.13627,0.0463 0.23437,0.13784 0.10568,0.0916 0.1656,0.22847 0.06,0.12928 0.059,0.29615 -7.2e-4,0.12894 -0.04,0.36385 -0.0392,0.22734 -0.12469,0.59853 -0.0855,0.37119 -0.12478,0.61369 -0.0392,0.23492 -0.0401,0.3942 -0.002,0.27305 0.0506,0.45538 0.0521,0.18233 0.13488,0.29657 0.0904,0.1067 0.19636,0.1528 0.11352,0.0461 0.23487,0.0468 0.34132,0.002 0.70624,-0.14777 0.36491,-0.14967 0.66936,-0.33759 0.35771,-0.21798 0.70059,-0.49671 l -0.12366,1.77421 q -0.19792,0.12784 -0.44911,0.28573 -0.25119,0.15788 -0.54021,0.30039 -0.2814,0.13496 -0.59293,0.23183 -0.3039,0.0893 -0.62246,0.0875 -0.56886,-0.003 -0.91649,-0.23266 -0.34759,-0.23707 -0.55031,-0.60987 -0.20268,-0.38038 -0.2987,-0.8436 -0.096,-0.47081 -0.154,-0.94899 l -0.12135,-6.8e-4 -1.37878,3.77725 q -0.10783,0.29522 -0.20754,0.49187 -0.0921,0.18912 -0.19135,0.30992 -0.0993,0.12081 -0.21335,0.17327 -0.11402,0.0449 -0.25055,0.0441 -0.31097,-0.002 -0.49988,-0.13173 -0.18886,-0.13758 -0.29382,-0.35813 -0.0973,-0.2281 -0.13369,-0.50894 -0.0287,-0.2884 -0.027,-0.59179 z"
               style="font-style:normal;font-variant:normal;font-weight:normal;font-stretch:normal;font-family:Pacifico;-inkscape-font-specification:Pacifico;text-align:start;writing-mode:lr-tb;direction:ltr;text-anchor:start;fill:#fafafa;fill-opacity:1;stroke:#fafafa;stroke-width:0.5;stroke-miterlimit:4;stroke-dasharray:none;stroke-opacity:1"
               id="path1256" />
            <path
               d="m 131.29996,124.99068 q -0.31224,0.1993 -0.76551,0.41233 -0.44448,0.20687 -0.94964,0.36458 -0.50385,0.15024 -1.01699,0.22184 -0.50567,0.0729 -0.93897,-0.003 -0.38847,-0.0682 -0.63904,-0.22005 -0.24179,-0.15798 -0.37203,-0.38108 -0.13024,-0.2231 -0.1564,-0.51263 -0.0174,-0.2957 0.0417,-0.63187 0.0827,-0.47065 0.29745,-1.07981 0.42173,-1.1735 0.50774,-1.31241 0.16232,-0.31034 0.6742,-1.38329 0.41932,-0.89668 0.52894,-1.17007 0.0701,-0.1802 0.26822,-0.29944 0.1805,-0.10692 0.38917,-0.15498 0.21745,-0.0542 0.43318,-0.0548 0.22452,-0.007 0.39634,0.0234 0.31377,0.0551 0.40484,0.19431 0.0924,0.13174 0.0583,0.32598 -0.0289,0.16435 -0.15868,0.46499 -0.1285,0.29318 -0.31009,0.66944 -0.18029,0.36879 -0.4492,0.89143 -0.26761,0.51518 -0.4597,0.9512 -0.19078,0.42856 -0.34159,0.84873 -0.14949,0.4127 -0.20984,0.75635 -0.059,0.33618 -0.0198,0.551 0.0406,0.20736 0.27218,0.24803 0.26894,0.0472 0.63044,-0.0818 0.36151,-0.12903 0.74361,-0.33146 0.38341,-0.2099 0.7545,-0.43736 0.37109,-0.22747 0.65305,-0.38588 z m -1.96432,-8.41565 q 0.0302,-0.17183 0.14293,-0.37535 0.11276,-0.20353 0.30991,-0.36143 0.20594,-0.16406 0.50465,-0.24251 0.3075,-0.0846 0.72585,-0.0111 0.26147,0.0459 0.48257,0.14636 0.22109,0.10044 0.37061,0.25762 0.15083,0.1497 0.21252,0.36846 0.0692,0.22008 0.0206,0.49649 -0.0446,0.254 -0.16878,0.47863 -0.12416,0.22462 -0.33625,0.3799 -0.2121,0.15527 -0.5095,0.22626 -0.28862,0.0648 -0.66962,-0.002 -0.65741,-0.11546 -0.91738,-0.47686 -0.25866,-0.36887 -0.16813,-0.88434 z"
               style="font-style:normal;font-variant:normal;font-weight:normal;font-stretch:normal;font-family:Pacifico;-inkscape-font-specification:Pacifico;text-align:start;writing-mode:lr-tb;direction:ltr;text-anchor:start;fill:#fafafa;fill-opacity:1;stroke:#fafafa;stroke-width:0.5;stroke-miterlimit:4;stroke-dasharray:none;stroke-opacity:1"
               id="path1258" />
            <path
               d="m 135.70397,126.6998 q 0.72863,0.23657 1.37426,0.2867 0.64562,0.0501 1.20861,-0.0382 0.57021,-0.086 1.06518,-0.28416 0.50452,-0.20302 0.94375,-0.4751 l -0.45703,1.67782 q -0.32221,0.2064 -0.74073,0.36558 -0.40896,0.1543 -0.86411,0.22982 -0.45281,0.0683 -0.92548,0.0504 -0.46312,-0.0228 -0.88154,-0.15862 -0.0505,-0.0164 -0.12517,-0.0566 -0.0675,-0.0378 -0.24331,-0.13483 -0.17586,-0.097 -0.51062,-0.26945 -0.3252,-0.17736 -0.89587,-0.45834 l -0.0422,0.12985 q -0.4263,1.31299 -0.9966,2.30808 -0.56543,1.00464 -1.1793,1.64268 -0.61387,0.63803 -1.22351,0.89465 -0.60965,0.25661 -1.12186,0.0903 -0.41121,-0.13351 -0.61977,-0.42452 -0.20855,-0.291 -0.25483,-0.68881 -0.0558,-0.39294 0.0291,-0.87573 0.0754,-0.47792 0.24173,-0.99013 0.096,-0.29578 0.31162,-0.64047 0.21324,-0.33747 0.50546,-0.69715 0.28988,-0.35247 0.63008,-0.71252 0.33063,-0.35518 0.66867,-0.68404 0.79038,-0.76414 1.73657,-1.54149 0.26206,-0.53694 0.53348,-1.10274 0.27864,-0.56345 0.58164,-1.07913 0.31021,-0.51333 0.76668,-1.035 0.46602,-0.52654 0.88126,-0.79843 0.42245,-0.26955 0.91115,-0.35012 0.48869,-0.0806 1.08025,0.1115 0.44007,0.14288 0.7826,0.38966 0.34488,0.23957 0.54678,0.60019 0.2019,0.36061 0.22963,0.84013 0.0301,0.47229 -0.16902,1.0855 -0.22017,0.67813 -0.4886,1.01364 -0.40147,0.49965 -0.8836,0.80565 -0.47493,0.30833 -1.07052,0.52166 -0.58604,0.20846 -1.32901,0.28622 z m -0.67242,-1.02377 q 0.50312,-0.0759 0.90721,-0.23975 0.38966,-0.16855 0.7189,-0.39659 0.0985,0.016 0.66277,-0.51849 0.41842,-0.47819 0.57939,-0.75289 0.0876,-0.147 0.16274,-0.35387 0.0847,-0.21175 0.0879,-0.41805 0.0104,-0.20397 -0.0845,-0.37833 -0.0854,-0.17923 -0.32342,-0.25653 -0.26693,-0.0867 -0.51812,-7.5e-4 -0.24884,0.0787 -0.48232,0.28201 -0.22626,0.20565 -0.43969,0.51914 -0.20622,0.31583 -0.50959,0.78354 -0.29382,0.46283 -0.46321,0.88631 -0.15984,0.41861 -0.29804,0.84425 z m -4.197,4.3791 q -0.0187,0.0577 -0.0393,0.1946 -0.0133,0.13922 0.002,0.28782 0.0155,0.14859 0.0765,0.28004 0.061,0.13145 0.19806,0.17595 0.12264,0.0398 0.2465,-0.0715 0.12152,-0.10409 0.24463,-0.31134 0.12311,-0.20724 0.2361,-0.48157 0.11299,-0.27433 0.22346,-0.56542 0.11046,-0.2911 0.20181,-0.57245 0.0986,-0.27902 0.1856,-0.49797 0.14813,-0.38254 0.24435,-0.65434 0.1011,-0.26224 0.16687,-0.44025 0.0728,-0.19966 0.12451,-0.33438 -0.21436,0.19356 -0.44494,0.46161 -0.23291,0.27526 -0.45843,0.57685 -0.22551,0.30159 -0.42939,0.61021 -0.20387,0.30862 -0.3697,0.57376 -0.16097,0.2747 -0.27218,0.46986 -0.10634,0.20472 -0.13679,0.2985 z"
               style="font-style:normal;font-variant:normal;font-weight:normal;font-stretch:normal;font-family:Pacifico;-inkscape-font-specification:Pacifico;text-align:start;writing-mode:lr-tb;direction:ltr;text-anchor:start;fill:#fafafa;fill-opacity:1;stroke:#fafafa;stroke-width:0.5;stroke-miterlimit:4;stroke-dasharray:none;stroke-opacity:1"
               id="path1260" />
            <path
               d="m 146.73285,130.99332 q -0.83897,0.0821 -1.48888,0.13427 -0.64991,0.0521 -1.14521,0.0584 -0.48842,0.009 -0.84981,-0.0397 -0.35449,-0.0459 -0.60953,-0.16304 -0.52387,-0.24055 -0.77806,-0.7412 -0.2542,-0.50066 -0.25082,-1.21689 0.007,-0.72313 0.25799,-1.63427 0.25835,-0.90797 0.74578,-1.96949 0.18991,-0.41358 0.4396,-0.86647 0.2497,-0.4529 0.5238,-0.88624 -0.19413,-0.12253 -0.30182,-0.19701 -0.0976,-0.0782 -0.21909,-0.15903 -0.11142,-0.0845 -0.29865,-0.20391 -0.18035,-0.11619 -0.53357,-0.32847 -0.15594,-0.0966 -0.22023,-0.19293 -0.0611,-0.10319 -0.0677,-0.198 -0.003,-0.10171 0.0277,-0.18759 0.0342,-0.0928 0.0627,-0.15481 0.0633,-0.13786 0.23281,-0.14348 0.16579,-0.0157 0.3953,0.048 0.22261,0.0605 0.47076,0.17443 0.2582,0.11022 0.4825,0.22156 0.2312,0.11451 0.40725,0.20369 0.18611,0.0855 0.26137,0.10333 0.61341,-0.84509 1.29482,-1.58384 0.69148,-0.74247 1.35321,-1.25655 0.67178,-0.51782 1.27899,-0.73143 0.61038,-0.22051 1.07221,-0.008 0.2964,0.1361 0.46169,0.41231 0.17218,0.27938 0.2179,0.63422 0.0457,0.35485 -0.0356,0.76822 -0.0712,0.40964 -0.25483,0.80943 -0.15509,0.33775 -0.42567,0.67255 -0.26742,0.32791 -0.61327,0.64485 -0.34268,0.31004 -0.75372,0.60538 -0.40416,0.29851 -0.83272,0.57746 0.0589,0.0354 0.20363,0.10185 0.14475,0.0665 0.32453,0.16571 0.18984,0.0955 0.40408,0.21059 0.21741,0.10818 0.42104,0.21003 0.20362,0.10184 0.37967,0.19103 0.17605,0.0892 0.29007,0.14989 0.13469,0.0702 0.13659,0.22964 0.002,0.15946 -0.0899,0.35935 -0.11078,0.24126 -0.31827,0.3296 -0.20749,0.0883 -0.37292,0.0124 l -2.6469,-1.21541 q -0.3265,0.18392 -0.65673,0.3578 -0.32017,0.17014 -0.59062,0.30469 -0.22381,0.41471 -0.43439,0.81879 -0.0892,0.17605 -0.18471,0.36589 -0.0923,0.18294 -0.1847,0.36589 -0.0924,0.18294 -0.17837,0.3521 -0.0791,0.17233 -0.1456,0.31708 -0.17092,0.37222 -0.2191,0.65891 -0.0482,0.28669 0.007,0.51226 0.0582,0.21868 0.20946,0.37996 0.16136,0.15755 0.39572,0.26517 0.14475,0.0665 0.39008,0.0957 0.25223,0.0324 0.56108,0.0323 0.3189,-0.004 0.67748,-0.0395 0.36546,-0.0325 0.72981,-0.0989 0.3744,-0.0701 0.72756,-0.1667 0.35632,-0.10347 0.66756,-0.23598 z m 1.80132,-9.73934 q 0.0348,-0.0758 0.0622,-0.17176 0.0374,-0.0997 0.0409,-0.19821 0.004,-0.0985 -0.047,-0.1885 -0.0436,-0.0868 -0.17458,-0.14693 -0.17921,-0.0823 -0.51092,0.14932 -0.32481,0.23479 -0.72503,0.65195 -0.39015,0.41344 -0.814,0.9366 -0.41695,0.52633 -0.7974,1.02768 0.0971,0.0613 0.19412,0.12253 0.10023,0.0544 0.20419,0.1188 0.36821,-0.25659 0.77553,-0.56199 0.41738,-0.30913 0.77701,-0.61973 0.36279,-0.3175 0.63823,-0.60834 0.27544,-0.29084 0.37672,-0.51142 z"
               style="font-style:normal;font-variant:normal;font-weight:normal;font-stretch:normal;font-family:Pacifico;-inkscape-font-specification:Pacifico;text-align:start;writing-mode:lr-tb;direction:ltr;text-anchor:start;fill:#fafafa;fill-opacity:1;stroke:#fafafa;stroke-width:0.5;stroke-miterlimit:4;stroke-dasharray:none;stroke-opacity:1"
               id="path1262" />
          </g>
          <g
             aria-label="Pop"
             transform="matrix(0.95462267,-0.34747366,0.23010609,0.96377786,0,0)"
             style="font-style:normal;font-variant:normal;font-weight:bold;font-stretch:normal;font-size:26.70932007px;line-height:125%;font-family:Pacifico;-inkscape-font-specification:'Pacifico Bold';text-align:start;letter-spacing:0.59595776px;word-spacing:0px;writing-mode:lr-tb;direction:ltr;text-anchor:start;display:inline;fill:#f2ec96;fill-opacity:1;stroke:none;stroke-width:0.66773307px;stroke-linecap:butt;stroke-linejoin:miter;stroke-opacity:1"
             id="text2063">
            <path
               d="m 75.369971,162.32666 q 2.190999,0 3.834248,0.59992 1.656291,0.58687 2.75179,1.57804 1.0955,0.97812 1.64325,2.25621 0.560791,1.27808 0.560791,2.64745 0,1.27809 -0.495583,2.53009 -0.495583,1.25199 -1.499791,2.30837 -0.991166,1.05637 -2.517041,1.82583 -1.512832,0.76946 -3.560373,1.08246 -0.03912,0.95204 -0.06521,1.74758 -0.01304,0.33909 -0.02608,0.67817 -0.01304,0.33908 -0.02608,0.626 0,0.27387 -0.01304,0.48254 0,0.20867 0,0.28692 -0.02608,0.91291 -0.221709,1.90408 -0.182583,0.97812 -0.547749,1.91712 -0.352125,0.939 -0.873792,1.77367 -0.508624,0.84771 -1.199832,1.47371 -0.678167,0.63904 -1.525875,1.0042 -0.847707,0.37821 -1.851915,0.37821 -1.069416,0 -1.917124,-0.56079 -0.834667,-0.54775 -1.473708,-1.48675 -0.626,-0.939 -1.069416,-2.16491 -0.430375,-1.22592 -0.70425,-2.55617 -0.273875,-1.34329 -0.404291,-2.69962 -0.117375,-1.35634 -0.117375,-2.55617 0,-2.06058 0.378208,-3.97771 0.378208,-1.91712 1.082458,-3.58645 0.704249,-1.68238 1.708457,-3.06479 1.004208,-1.38242 2.256208,-2.37358 1.265041,-0.99117 2.738748,-1.52588 1.486749,-0.54775 3.156082,-0.54775 z m -7.824996,14.73708 q 0,0.53471 0,1.44762 0.01304,0.89988 0.07825,1.93017 0.06521,1.03029 0.208666,2.08666 0.143459,1.05638 0.417333,1.91713 0.286917,0.84771 0.70425,1.39546 0.430375,0.5347 1.069416,0.5347 0.665125,0 1.134625,-0.45645 0.469499,-0.4695 0.782499,-1.19984 0.313,-0.74337 0.495583,-1.66933 0.182584,-0.939 0.273875,-1.878 0.09129,-0.939 0.117375,-1.78671 0.02608,-0.86075 0.02608,-1.46066 v -0.61296 q -1.082458,-0.43038 -1.708458,-0.75642 -0.612958,-0.32604 -0.925958,-0.626 -0.313,-0.29995 -0.404291,-0.626 -0.07825,-0.33908 -0.07825,-0.7825 0,-0.23475 0.01304,-0.45645 0.01304,-0.23475 0.06521,-0.4043 0.06521,-0.18258 0.169541,-0.28691 0.117375,-0.11738 0.313,-0.11738 0.130417,0 0.23475,0.0522 0.117375,0.0522 0.286917,0.14346 0.430374,0.23475 0.782499,0.39125 0.352125,0.14346 0.599917,0.23475 0.286916,0.10433 0.521666,0.1565 0,-0.16954 0,-0.66513 0.01304,-0.50862 0.07825,-1.14766 0.07825,-0.65209 0.247791,-1.35634 0.169542,-0.70425 0.495584,-1.29112 0.326041,-0.58687 0.847707,-0.96508 0.521667,-0.39125 1.291125,-0.39125 0.23475,0 0.482541,0.0522 0.247792,0.0391 0.443417,0.16955 0.208666,0.11737 0.339083,0.32604 0.143458,0.20866 0.143458,0.5347 0,0.0913 -0.01304,0.13042 0,0.0261 0,0.0782 l -0.795541,3.35171 -0.117375,1.03029 q 1.278083,-0.19563 2.204041,-0.626 0.925958,-0.43038 1.525874,-1.01725 0.612958,-0.58687 0.899875,-1.29112 0.299958,-0.70425 0.299958,-1.44763 0,-0.73033 -0.286917,-1.48675 -0.273875,-0.76946 -0.965083,-1.39546 -0.691208,-0.626 -1.851915,-1.03029 -1.160708,-0.40429 -2.921332,-0.40429 -1.317208,0 -2.386624,0.50863 -1.069416,0.49558 -1.904082,1.35633 -0.834667,0.86075 -1.447625,2.00841 -0.612958,1.14767 -1.017249,2.45184 -0.39125,1.29112 -0.586875,2.67354 -0.182583,1.36937 -0.182583,2.67354 z"
               style="font-style:normal;font-variant:normal;font-weight:bold;font-stretch:normal;font-size:26.70932007px;line-height:125%;font-family:Pacifico;-inkscape-font-specification:'Pacifico Bold';text-align:start;letter-spacing:0.59595776px;word-spacing:0px;writing-mode:lr-tb;direction:ltr;text-anchor:start;display:inline;fill:#f2ec96;fill-opacity:1;stroke:none;stroke-width:0.66773307px;stroke-linecap:butt;stroke-linejoin:miter;stroke-opacity:1"
               id="path1265" />
            <path
               d="m 91.407255,176.04649 q 0.378208,0.75641 0.560791,1.60412 0.195625,0.83467 0.195625,1.89104 0,0.76946 -0.169542,1.55196 -0.169541,0.7825 -0.495583,1.51283 -0.312999,0.73034 -0.782499,1.36938 -0.456458,0.63904 -1.056375,1.10854 -0.586874,0.4695 -1.291124,0.74337 -0.70425,0.27388 -1.499791,0.27388 -1.147666,0 -1.969291,-0.49558 -0.808583,-0.50863 -1.330249,-1.31721 -0.521666,-0.80859 -0.769458,-1.82583 -0.23475,-1.01725 -0.23475,-2.06059 0,-1.7215 0.430375,-2.96045 0.430375,-1.252 1.225916,-2.16492 0.808583,-0.92596 1.969291,-1.44762 1.160707,-0.53471 2.608332,-0.53471 1.238957,0 2.321415,0.39125 1.082458,0.37821 2.021458,1.03029 0.952041,0.63904 1.760624,1.61716 0.821624,0.97813 1.525874,1.86496 l -0.247792,1.83888 q -0.352124,-0.4695 -0.952041,-1.01725 -0.599916,-0.54775 -1.278083,-1.21288 -0.665124,-0.66512 -1.317207,-1.12158 -0.652083,-0.4695 -1.121583,-0.7825 z m -4.029873,7.55112 q 0.443416,0 0.860749,-0.44342 0.417333,-0.45646 0.730333,-1.13462 0.313,-0.69121 0.495583,-1.65629 0.195625,-0.97813 0.195625,-1.73454 0,-0.59992 -0.09129,-1.10854 -0.09129,-0.52167 -0.273875,-0.89988 -0.182583,-0.37821 -0.4695,-0.59992 -0.286917,-0.2217 -0.691208,-0.2217 -0.534708,0 -1.017249,0.45645 -0.482542,0.45646 -0.847708,1.17375 -0.365167,0.70425 -0.573833,1.565 -0.208667,0.86075 -0.208667,1.94321 0,0.54775 0.104333,1.03029 0.104334,0.48254 0.326042,0.84771 0.221708,0.35212 0.586874,0.57383 0.365167,0.20867 0.873791,0.20867 z"
               style="font-style:normal;font-variant:normal;font-weight:bold;font-stretch:normal;font-size:26.70932007px;line-height:125%;font-family:Pacifico;-inkscape-font-specification:'Pacifico Bold';text-align:start;letter-spacing:0.59595776px;word-spacing:0px;writing-mode:lr-tb;direction:ltr;text-anchor:start;display:inline;fill:#f2ec96;fill-opacity:1;stroke:none;stroke-width:0.66773307px;stroke-linecap:butt;stroke-linejoin:miter;stroke-opacity:1"
               id="path1267" />
            <path
               d="m 100.58462,183.78019 q 1.31721,0 2.39967,-0.26083 1.08246,-0.26083 1.95625,-0.70425 0.88683,-0.44342 1.59108,-1.03029 0.71729,-0.59992 1.29112,-1.27808 l 0.14346,2.98654 q -0.41733,0.50862 -1.01725,0.99116 -0.58687,0.4695 -1.29112,0.83467 -0.70425,0.35212 -1.48675,0.57383 -0.76946,0.20867 -1.52587,0.20867 -0.0913,0 -0.23475,-0.0261 -0.13042,-0.0261 -0.4695,-0.0913 -0.33909,-0.0652 -0.97813,-0.16954 -0.626,-0.11737 -1.708456,-0.27387 v 0.23475 q 0,2.37358 -0.404291,4.30374 -0.39125,1.94321 -1.056375,3.31259 -0.665124,1.36937 -1.525874,2.11275 -0.86075,0.74337 -1.786708,0.74337 -0.743374,0 -1.238957,-0.36517 -0.495583,-0.36516 -0.7825,-0.99116 -0.299958,-0.61296 -0.417333,-1.44763 -0.130417,-0.82162 -0.130417,-1.74758 0,-0.53471 0.169542,-1.21287 0.169542,-0.66513 0.456458,-1.4085 0.286917,-0.73034 0.652083,-1.49979 0.352125,-0.75642 0.730333,-1.47371 0.886833,-1.66933 2.021457,-3.443 0.143459,-1.01725 0.286917,-2.08667 0.1565,-1.06941 0.378208,-2.07362 0.23475,-1.00421 0.70425,-2.09971 0.482541,-1.10854 1.017249,-1.77366 0.54775,-0.66513 1.304166,-1.05638 0.756418,-0.39125 1.825828,-0.39125 0.79555,0 1.48675,0.22171 0.69121,0.20867 1.21288,0.69121 0.52166,0.48254 0.82162,1.252 0.29996,0.75641 0.29996,1.86496 0,1.22591 -0.26083,1.91712 -0.39125,1.03029 -1.01725,1.78671 -0.61296,0.75641 -1.47371,1.42154 -0.84771,0.65208 -2.02146,1.17375 z m -1.643246,-1.3172 q 0.7825,-0.39125 1.356336,-0.8738 0.54775,-0.48254 0.96508,-1.03029 0.16954,-0.0261 0.80858,-1.19983 0.43038,-1.00421 0.54775,-1.53892 0.0652,-0.28691 0.0783,-0.66512 0.0261,-0.39125 -0.0783,-0.73033 -0.0913,-0.33909 -0.33908,-0.57384 -0.23475,-0.24779 -0.66513,-0.24779 -0.48254,0 -0.8477,0.27388 -0.36517,0.26083 -0.63904,0.71729 -0.260838,0.45646 -0.443421,1.08246 -0.169542,0.626 -0.417333,1.55195 -0.23475,0.91292 -0.286917,1.69542 -0.03912,0.76946 -0.03912,1.53892 z m -4.538497,9.38999 q 0,0.10433 0.03912,0.33908 0.05217,0.23475 0.156499,0.4695 0.104334,0.23475 0.273875,0.41734 0.169542,0.18258 0.417333,0.18258 0.221709,0 0.365167,-0.24779 0.143458,-0.23475 0.23475,-0.63904 0.09129,-0.40429 0.130416,-0.91292 0.03912,-0.50862 0.06521,-1.04333 0.02608,-0.53471 0.02608,-1.04334 0.01304,-0.50862 0.03912,-0.91291 0.03912,-0.70425 0.05217,-1.19983 0.02608,-0.48255 0.03912,-0.80859 0.01304,-0.36516 0.02608,-0.61295 -0.247792,0.43037 -0.482541,0.99116 -0.23475,0.57383 -0.443417,1.18679 -0.208667,0.61296 -0.378208,1.22592 -0.169542,0.61296 -0.299958,1.13462 -0.117375,0.53471 -0.195625,0.91292 -0.06521,0.39125 -0.06521,0.56079 z"
               style="font-style:normal;font-variant:normal;font-weight:bold;font-stretch:normal;font-size:26.70932007px;line-height:125%;font-family:Pacifico;-inkscape-font-specification:'Pacifico Bold';text-align:start;letter-spacing:0.59595776px;word-spacing:0px;writing-mode:lr-tb;direction:ltr;text-anchor:start;display:inline;fill:#f2ec96;fill-opacity:1;stroke:none;stroke-width:0.66773307px;stroke-linecap:butt;stroke-linejoin:miter;stroke-opacity:1"
               id="path1269" />
          </g>
        </g>
      </g>
    </g>
  </g>
</svg>
