<?xml version="1.0" encoding="UTF-8" standalone="no"?>
<!-- Created with Inkscape (http://www.inkscape.org/) -->

<svg
   xmlns:dc="http://purl.org/dc/elements/1.1/"
   xmlns:cc="http://creativecommons.org/ns#"
   xmlns:rdf="http://www.w3.org/1999/02/22-rdf-syntax-ns#"
   xmlns:svg="http://www.w3.org/2000/svg"
   xmlns="http://www.w3.org/2000/svg"
   xmlns:xlink="http://www.w3.org/1999/xlink"
   xmlns:sodipodi="http://sodipodi.sourceforge.net/DTD/sodipodi-0.dtd"
   xmlns:inkscape="http://www.inkscape.org/namespaces/inkscape"
   width="127.17508"
   height="200.27283"
   viewBox="0 0 127.17508 200.27284"
   version="1.1"
   id="svg8"
   inkscape:version="0.92.2 2405546, 2018-03-11"
   sodipodi:docname="pop-can.svg"
   enable-background="new">
  <defs
     id="defs2">
    <inkscape:path-effect
       effect="powerstroke"
       id="path-effect4622"
       is_visible="true"
       offset_points="2.8734524,1.8027388 | 0.8605758,2.5702036 | 1.9838773,3.0071246"
       sort_points="true"
       interpolator_type="Linear"
       interpolator_beta="0.2"
       start_linecap_type="butt"
       linejoin_type="extrp_arc"
       miter_limit="4"
       end_linecap_type="butt" />
    <inkscape:path-effect
       effect="simplify"
       id="path-effect4618"
       is_visible="true"
       steps="1"
       threshold="0.00645161"
       smooth_angles="360"
       helper_size="0"
       simplify_individual_paths="false"
       simplify_just_coalesce="false"
       simplifyindividualpaths="false"
       simplifyJustCoalesce="false" />
    <inkscape:path-effect
       effect="simplify"
       id="path-effect4614"
       is_visible="true"
       steps="1"
       threshold="0.00645161"
       smooth_angles="360"
       helper_size="0"
       simplify_individual_paths="false"
       simplify_just_coalesce="false"
       simplifyindividualpaths="false"
       simplifyJustCoalesce="false" />
    <inkscape:path-effect
       effect="simplify"
       id="path-effect4610"
       is_visible="true"
       steps="1"
       threshold="0.00645161"
       smooth_angles="360"
       helper_size="0"
       simplify_individual_paths="false"
       simplify_just_coalesce="false"
       simplifyindividualpaths="false"
       simplifyJustCoalesce="false" />
    <inkscape:path-effect
       effect="simplify"
       id="path-effect4606"
       is_visible="true"
       steps="1"
       threshold="0.00645161"
       smooth_angles="360"
       helper_size="0"
       simplify_individual_paths="false"
       simplify_just_coalesce="false"
       simplifyindividualpaths="false"
       simplifyJustCoalesce="false" />
    <inkscape:path-effect
       effect="simplify"
       id="path-effect4602"
       is_visible="true"
       steps="1"
       threshold="0.00457143"
       smooth_angles="360"
       helper_size="0"
       simplify_individual_paths="false"
       simplify_just_coalesce="false"
       simplifyindividualpaths="false"
       simplifyJustCoalesce="false" />
    <inkscape:path-effect
       effect="simplify"
       id="path-effect4598"
       is_visible="true"
       steps="1"
       threshold="0.00457143"
       smooth_angles="360"
       helper_size="0"
       simplify_individual_paths="false"
       simplify_just_coalesce="false"
       simplifyindividualpaths="false"
       simplifyJustCoalesce="false" />
    <inkscape:path-effect
       effect="simplify"
       id="path-effect4594"
       is_visible="true"
       steps="1"
       threshold="0.00457143"
       smooth_angles="360"
       helper_size="0"
       simplify_individual_paths="false"
       simplify_just_coalesce="false"
       simplifyindividualpaths="false"
       simplifyJustCoalesce="false" />
    <inkscape:path-effect
       effect="simplify"
       id="path-effect4590"
       is_visible="true"
       steps="1"
       threshold="0.00337705"
       smooth_angles="360"
       helper_size="0"
       simplify_individual_paths="false"
       simplify_just_coalesce="false"
       simplifyindividualpaths="false"
       simplifyJustCoalesce="false" />
    <inkscape:path-effect
       effect="bspline"
       id="path-effect4586"
       is_visible="true"
       weight="28.9333"
       steps="2"
       helper_size="0"
       apply_no_weight="true"
       apply_with_weight="true"
       only_selected="false" />
    <inkscape:path-effect
       effect="simplify"
       id="path-effect4584"
       is_visible="true"
       steps="1"
       threshold="0.010382"
       smooth_angles="10"
       helper_size="0"
       simplify_individual_paths="false"
       simplify_just_coalesce="false"
       simplifyindividualpaths="false"
       simplifyJustCoalesce="false" />
    <inkscape:path-effect
       effect="bspline"
       id="path-effect4574"
       is_visible="true"
       weight="33.333333"
       steps="2"
       helper_size="0"
       apply_no_weight="true"
       apply_with_weight="true"
       only_selected="false" />
    <inkscape:path-effect
       effect="simplify"
       id="path-effect4572"
       is_visible="true"
       steps="1"
       threshold="0.00242788"
       smooth_angles="360"
       helper_size="0"
       simplify_individual_paths="false"
       simplify_just_coalesce="false"
       simplifyindividualpaths="false"
       simplifyJustCoalesce="false" />
  </defs>
  <sodipodi:namedview
     id="base"
     pagecolor="#ffffff"
     bordercolor="#666666"
     borderopacity="1.0"
     inkscape:pageopacity="0.0"
     inkscape:pageshadow="2"
     inkscape:zoom="31.678384"
     inkscape:cx="81.046137"
     inkscape:cy="175.85534"
     inkscape:document-units="px"
     inkscape:current-layer="layer1"
     showgrid="false"
     inkscape:window-width="1920"
     inkscape:window-height="1152"
     inkscape:window-x="0"
     inkscape:window-y="320"
     inkscape:window-maximized="1"
     inkscape:object-nodes="false"
     units="px"
     fit-margin-top="10"
     fit-margin-left="10"
     fit-margin-right="10"
     fit-margin-bottom="10"
     showguides="false" />
  <metadata
     id="metadata5">
    <rdf:RDF>
      <cc:Work
         rdf:about="">
        <dc:format>image/svg+xml</dc:format>
        <dc:type
           rdf:resource="http://purl.org/dc/dcmitype/StillImage" />
        <dc:title></dc:title>
        <dc:creator>
          <cc:Agent>
            <dc:title>(C) 2018 David Lettier</dc:title>
          </cc:Agent>
        </dc:creator>
      </cc:Work>
    </rdf:RDF>
  </metadata>
  <g
     inkscape:label="pop-can"
     inkscape:groupmode="layer"
     id="layer1"
     transform="translate(-39.979402,-41.491477)"
     style="display:inline">
    <path
       style="opacity:1;vector-effect:none;fill:#1abab2;fill-opacity:1;fill-rule:evenodd;stroke:none;stroke-width:1.32291663;stroke-linecap:butt;stroke-linejoin:round;stroke-miterlimit:4;stroke-dasharray:none;stroke-dashoffset:1107.35998535;stroke-opacity:1"
       d="m 52.117558,220.29364 c 1.821895,15.23792 102.889762,15.26075 105.036922,0.26727 V 91.737002 c -1.67409,-11.925435 -4.91437,-13.670639 -7.48355,-19.777946 -0.0368,-2.446943 0.3399,-5.927865 0.80181,-9.621702 -42.84465,-19.311103 -88.0562,-3.803457 -93.795388,2.748194 l -0.283482,7.942586 c -3.120704,3.916928 -6.019097,8.096588 -6.414468,15.234365 z"
       id="path826"
       inkscape:connector-curvature="0"
       sodipodi:nodetypes="ccccccccc" />
    <path
       sodipodi:nodetypes="ccccc"
       inkscape:connector-curvature="0"
       id="path843"
       d="m 149.67093,71.959056 c -0.0368,-2.446943 0.3399,-5.927865 0.80181,-9.621702 -42.84465,-19.311103 -87.678224,-5.787832 -93.795388,2.748194 l -0.283482,7.942586 c 30.747257,9.766459 70.94093,11.210576 93.27706,-1.069078 z"
       style="display:inline;opacity:1;vector-effect:none;fill:#63627b;fill-opacity:1;fill-rule:evenodd;stroke:none;stroke-width:1.32291663;stroke-linecap:butt;stroke-linejoin:round;stroke-miterlimit:4;stroke-dasharray:none;stroke-dashoffset:1107.35998535;stroke-opacity:1" />
    <path
       style="display:inline;opacity:1;vector-effect:none;fill:#4f4f63;fill-opacity:1;fill-rule:evenodd;stroke:none;stroke-width:1.32291663;stroke-linecap:butt;stroke-linejoin:round;stroke-miterlimit:4;stroke-dasharray:none;stroke-dashoffset:1107.35998535;stroke-opacity:1"
       d="m 147.86179,61.746353 c 2.18037,0.811788 2.25385,12.038433 -1.82173,13.056889 l -11.45334,2.8621 c 1.06435,-0.982813 5.08311,-6.44067 3.04107,-8.764259 12.58891,-4.149917 -0.73782,-3.47008 -3.20853,-4.795262 4.17185,-0.546511 5.50689,-2.517326 4.31685,-5.757113 z"
       id="path4792"
       inkscape:connector-curvature="0"
       sodipodi:nodetypes="ssccccs" />
    <path
       style="display:inline;opacity:1;vector-effect:none;fill:#bbbbc9;fill-opacity:1;fill-rule:evenodd;stroke:none;stroke-width:1.32291663;stroke-linecap:butt;stroke-linejoin:round;stroke-miterlimit:4;stroke-dasharray:none;stroke-dashoffset:1107.35998535;stroke-opacity:1"
       d="m 65.831511,68.159024 c -2.326565,-0.01026 -3.130436,6.074036 0.986516,6.909691 l 4.70058,0.95412 c -4.257399,-3.931251 2.135578,-5.962715 -3.410197,-7.85377 z"
       id="path4780"
       inkscape:connector-curvature="0"
       sodipodi:nodetypes="ssccs" />
    <path
       sodipodi:nodetypes="ssccs"
       inkscape:connector-curvature="0"
       id="path4788"
       d="m 75.527003,69.16356 c -2.32657,-0.01026 -3.13044,6.074036 0.98651,6.909691 l 4.70058,0.95412 c -4.25739,-3.931251 2.13558,-5.962715 -3.41019,-7.85377 z"
       style="display:inline;opacity:1;vector-effect:none;fill:#bbbbc9;fill-opacity:1;fill-rule:evenodd;stroke:none;stroke-width:1.32291663;stroke-linecap:butt;stroke-linejoin:round;stroke-miterlimit:4;stroke-dasharray:none;stroke-dashoffset:1107.35998535;stroke-opacity:1" />
    <path
       id="path4758"
       style="display:inline;opacity:1;vector-effect:none;fill:#3a3243;fill-opacity:1;fill-rule:evenodd;stroke:none;stroke-width:0.90434176;stroke-linecap:butt;stroke-linejoin:round;stroke-miterlimit:4;stroke-dasharray:none;stroke-dashoffset:1107.35998535;stroke-opacity:1"
       d="m 58.079887,71.631022 c 40.167462,11.982155 68.429313,9.836313 89.728133,-0.572319 l 0.9787,-7.796708 C 120.01146,50.272351 76.331302,48.528377 58.953732,66.582519 Z m -1.686017,1.397112 c 34.30795,11.392936 65.52025,11.474831 93.27706,-1.069078 l 0.80181,-9.621702 c -40.13062,-19.74462 -81.211168,-8.65285 -93.79539,2.748193 z"
       inkscape:connector-curvature="0"
       sodipodi:nodetypes="cccccccccc" />
    <path
       style="display:inline;opacity:1;vector-effect:none;fill:#3a3243;fill-opacity:1;fill-rule:evenodd;stroke:none;stroke-width:1.32291663;stroke-linecap:butt;stroke-linejoin:round;stroke-miterlimit:4;stroke-dasharray:none;stroke-dashoffset:1107.35998535;stroke-opacity:1"
       d="m 58.878896,64.583984 -0.379057,3.252955 c 5.766243,4.131937 68.188791,10.266017 90.361481,-2.577173 l -0.0746,-1.997771 C 122.78226,75.02583 67.532284,70.105283 58.878906,64.583984 Z"
       id="path4761"
       inkscape:connector-curvature="0"
       sodipodi:nodetypes="cccccc" />
    <path
       sodipodi:nodetypes="ccccc"
       inkscape:connector-curvature="0"
       id="path4765"
       d="M 66.286508,67.47141 C 99.770257,56.76833 131.68056,64.410603 143.75864,66.110212 L 146.0464,65.24637 C 112.98254,57.642221 86.191358,57.963405 63.198771,66.58179 Z"
       style="display:inline;opacity:1;vector-effect:none;fill:#3a3243;fill-opacity:1;fill-rule:evenodd;stroke:none;stroke-width:1.32291663;stroke-linecap:butt;stroke-linejoin:round;stroke-miterlimit:4;stroke-dasharray:none;stroke-dashoffset:1107.35998535;stroke-opacity:1" />
    <path
       style="display:inline;opacity:1;vector-effect:none;fill:#2de2da;fill-opacity:1;fill-rule:evenodd;stroke:none;stroke-width:1.32291663;stroke-linecap:butt;stroke-linejoin:round;stroke-miterlimit:4;stroke-dasharray:none;stroke-dashoffset:1107.35998535;stroke-opacity:1"
       d="m 65.359375,78.873047 c -4.162269,4.92802 -11.17193,8.966838 -9.09375,16.458984 V 221.0957 l 5.999,0.6339 C 68.099933,191.00068 45.533781,83.690388 68.8125,80.365234 68.68525,78.574886 66.729501,77.672153 65.359375,78.873047 Z"
       id="path4772"
       inkscape:connector-curvature="0"
       sodipodi:nodetypes="cccccc" />
    <path
       sodipodi:nodetypes="cccccc"
       inkscape:connector-curvature="0"
       id="path4776"
       d="m 145.29242,78.64602 c 0,0 7.51467,-0.684204 8.91099,14.558758 l -1.25807,128.005392 -9.79308,3.45939 C 137.31695,193.94064 166.49802,80.149067 136.20348,81.835217 Z"
       style="display:inline;opacity:1;vector-effect:none;fill:#17a09b;fill-opacity:1;fill-rule:evenodd;stroke:none;stroke-width:1.32291663;stroke-linecap:butt;stroke-linejoin:round;stroke-miterlimit:4;stroke-dasharray:none;stroke-dashoffset:1107.35998535;stroke-opacity:1" />
    <path
       sodipodi:nodetypes="cccccc"
       inkscape:connector-curvature="0"
       id="path4778"
       d="M 79.328487,80.57394 C 73.09673,85.50196 62.601853,89.540778 65.713308,97.032924 V 222.79659 l 8.981714,0.6339 C 83.431655,192.70157 49.645572,85.391281 84.498512,82.066127 84.307993,80.275779 81.379842,79.373046 79.328487,80.57394 Z"
       style="display:inline;opacity:1;vector-effect:none;fill:#2de2da;fill-opacity:1;fill-rule:evenodd;stroke:none;stroke-width:1.61872339;stroke-linecap:butt;stroke-linejoin:round;stroke-miterlimit:4;stroke-dasharray:none;stroke-dashoffset:1107.35998535;stroke-opacity:1" />
    <path
       style="opacity:1;vector-effect:none;fill:#1b799b;fill-opacity:0.69911505;fill-rule:evenodd;stroke:none;stroke-width:1;stroke-linecap:butt;stroke-linejoin:round;stroke-miterlimit:4;stroke-dasharray:none;stroke-dashoffset:1107.35998535;stroke-opacity:1"
       d="m 20.203051,134.61291 1.515229,-12.37437 c 0,0 12.12183,7.32361 10.859139,8.08122 -1.26269,0.75762 23.233509,-9.59645 23.233509,-9.59645 l 11.616754,10.60661 16.920055,-9.09138 10.606602,6.566 8.586301,-10.35407 10.35406,17.17259 -0.75762,24.24367 c 0,0 -4.04061,10.10152 -5.80837,10.6066 -1.76777,0.50507 -10.606604,-11.36422 -10.606604,-11.36422 l -6.313454,3.78807 -12.12183,15.40483 -11.869293,-9.34391 -5.050762,5.05076 -8.586297,-15.15229 -17.172593,13.13199 -1.767767,-12.37437 -13.384521,9.59645 -1.010153,-11.11168 -6.565991,1.01015 0.252538,-32.82996 z"
       id="path852"
       inkscape:connector-curvature="0"
       transform="translate(39.979402,41.491477)"
       inkscape:label="flavor-background" />
    <path
       id="path4769"
       style="opacity:1;vector-effect:none;fill:#3a3243;fill-opacity:1;fill-rule:evenodd;stroke:none;stroke-width:1.19727874;stroke-linecap:butt;stroke-linejoin:round;stroke-miterlimit:4;stroke-dasharray:none;stroke-dashoffset:1107.35998535;stroke-opacity:1"
       d="m 54.357894,214.78309 c 1.648869,13.79077 95.575126,17.59119 97.518366,4.02165 l 2.32715,-125.599962 c -1.5151,-10.792872 -4.18038,-12.372333 -8.91099,-14.558758 -29.88263,12.988348 -57.445583,9.343375 -84.418504,0.967548 -2.82433,3.544935 -6.58139,4.114853 -6.939213,10.574753 z m -2.240336,5.51055 c 1.821895,15.23792 102.889762,15.26075 105.036922,0.26727 V 91.737002 c -1.67409,-11.925435 -5.18164,-14.205178 -7.75082,-20.312485 -28.73607,13.326707 -59.499844,11.033117 -92.608886,1.135895 -3.120704,3.916928 -6.420001,8.56431 -6.815372,15.702087 z"
       inkscape:connector-curvature="0"
       sodipodi:nodetypes="cccccccccccccc" />
    <path
       sodipodi:nodetypes="cccccccccc"
       inkscape:connector-curvature="0"
       d="m 58.079887,71.631022 c 40.167462,11.982155 68.429313,9.836313 89.728133,-0.572319 l 0.9787,-7.796708 C 120.01146,50.272351 76.331302,48.528377 58.953732,66.582519 Z m -1.686017,1.397112 c 34.30795,11.392936 65.52025,11.474831 93.27706,-1.069078 l 0.80181,-9.621702 c -40.13062,-19.74462 -81.211168,-8.65285 -93.79539,2.748193 z"
       style="opacity:1;vector-effect:none;fill:#3a3243;fill-opacity:1;fill-rule:evenodd;stroke:none;stroke-width:0.90434176;stroke-linecap:butt;stroke-linejoin:round;stroke-miterlimit:4;stroke-dasharray:none;stroke-dashoffset:1107.35998535;stroke-opacity:1"
       id="path4790" />
    <path
       id="path4821"
       style="display:inline;opacity:1;vector-effect:none;fill:#3a3243;fill-opacity:1;fill-rule:evenodd;stroke:none;stroke-width:1.23990166;stroke-linecap:butt;stroke-linejoin:round;stroke-miterlimit:4;stroke-dasharray:none;stroke-dashoffset:1107.35998535;stroke-opacity:1"
       d="m 119.02014,68.630502 -2.85703,2.601579 -7.91178,-0.304747 3.96646,-5.578562 z m 2.07533,-0.705484 c 4.13528,2.2561 1.29981,4.324836 -2.99107,3.928571 l -12.32832,-0.389639 4.27899,-8.679206 z"
       inkscape:connector-curvature="0"
       sodipodi:nodetypes="cccccccccc" />
    <path
       sodipodi:nodetypes="cccccccccc"
       inkscape:connector-curvature="0"
       d="m 117.69941,69.626119 -1.33572,1.535046 -4.15693,0.323168 1.73444,-3.159856 z m 1.0425,-0.495593 -1.32489,2.237317 -6.47224,0.548147 1.7088,-4.800742 z"
       style="display:inline;opacity:1;vector-effect:none;fill:#3a3243;fill-opacity:1;fill-rule:evenodd;stroke:none;stroke-width:0.65293807;stroke-linecap:butt;stroke-linejoin:round;stroke-miterlimit:4;stroke-dasharray:none;stroke-dashoffset:1107.35998535;stroke-opacity:1"
       id="path4826" />
    <path
       id="path961"
       style="display:inline;opacity:1;vector-effect:none;fill:#3a3243;fill-opacity:1;fill-rule:evenodd;stroke:#3a3243;stroke-width:0.78897738;stroke-linecap:butt;stroke-linejoin:round;stroke-miterlimit:4;stroke-dasharray:none;stroke-dashoffset:1107.35998535;stroke-opacity:1"
       d="m 121.27803,70.133138 c -0.87145,-2.205513 7.23471,-7.725036 14.19158,-1.962217 z m -1.72847,0.581248 c 0.32416,-2.627989 7.11855,-9.793784 17.41397,-2.193007 z"
       inkscape:connector-curvature="0"
       sodipodi:nodetypes="cccccc" />
  </g>
  <g
     inkscape:groupmode="layer"
     id="layer3"
     inkscape:label="flavor">
    <text
       xml:space="preserve"
       style="font-style:normal;font-variant:normal;font-weight:bold;font-stretch:normal;font-size:16.63953972px;line-height:40.0000006%;font-family:Knewave;-inkscape-font-specification:'Knewave Bold';text-align:start;letter-spacing:0.62398273px;word-spacing:0px;writing-mode:lr-tb;text-anchor:start;fill:#ffea29;fill-opacity:1;stroke:none;stroke-width:0.62398273px;stroke-linecap:butt;stroke-linejoin:miter;stroke-opacity:1"
       x="18.835629"
       y="151.55948"
       id="text5526"><tspan
         sodipodi:role="line"
         id="tspan5524"
         x="18.835629"
         y="151.55948"
         style="font-style:normal;font-variant:normal;font-weight:bold;font-stretch:normal;font-family:Knewave;-inkscape-font-specification:'Knewave Bold';fill:#ffea29;fill-opacity:1;stroke-width:0.62398273px">Functional</tspan></text>
  </g>
  <g
     id="layer2"
     inkscape:label="logo"
     transform="translate(-39.979402,-41.491477)"
     inkscape:groupmode="layer">
    <g
       id="g5459"
       transform="translate(0,-7.576144)">
      <path
         inkscape:label="star-burst"
         transform="translate(134.1693,37.685003)"
         inkscape:transform-center-y="-0.092522114"
         inkscape:transform-center-x="0.014172218"
         d="m 6.34386,119.75753 -14.8664866,-16.54879 9.9261606,16.56924 -7.4528509,-18.14613 2.7381857,20.74574 -3.0995504,-21.59465 -1.8916498,20.37849 -0.8080199,-17.03354 -3.9961707,15.79488 6.0065825,-16.06914 -13.5151215,17.12895 12.8843908,-17.36006 -15.5324808,13.26994 15.0626499,-16.65208 -16.7996869,12.59343 16.7530501,-10.44216 -20.0266101,5.17898 21.286465,-5.71756 -22.539267,-0.54241 22.769823,1.0243 -23.445654,-7.371507 22.642746,6.142277 L -25.186341,91.728491 -7.0511137,102.74023 -23.858085,85.515303 -10.36878,100.45274 -18.133558,84.541427 -9.5120677,103.16253 -13.871185,81.802955 -7.2742028,102.99238 -7.9100059,79.47921 -8.3667409,100.74059 -2.1166846,80.233434 -10.146856,102.9849 1.4021147,83.557012 -6.6832287,102.49902 4.0712397,84.542744 -7.2060487,100.10406 11.190288,90.731863 -7.8824249,100.18148 10.386029,93.423895 -9.2164329,100.42492 11.186135,98.012592 -7.8365067,100.45368 14.774179,106.28097 -9.6775972,103.23988 12.731811,109.98258 -8.8051728,102.03996 10.72425,113.93351 -8.353081,102.29222 Z"
         inkscape:randomized="0.1"
         inkscape:rounded="0"
         inkscape:flatsided="false"
         sodipodi:arg2="1.0244969"
         sodipodi:arg1="0.89883316"
         sodipodi:r2="0.21250869"
         sodipodi:r1="21.25087"
         sodipodi:cy="101.96429"
         sodipodi:cx="-8.1264887"
         sodipodi:sides="25"
         id="path4817"
         style="display:inline;opacity:1;fill:#ec6864;fill-opacity:1;fill-rule:nonzero;stroke:#ec6864;stroke-width:1.32291663;stroke-linecap:round;stroke-linejoin:round;stroke-miterlimit:4;stroke-dasharray:none;stroke-dashoffset:0;stroke-opacity:1;paint-order:normal"
         sodipodi:type="star" />
      <text
         inkscape:label="purescript-text"
         y="-1.0690781"
         x="71.895638"
         id="text4796"
         style="font-style:normal;font-variant:normal;font-weight:normal;font-stretch:normal;font-size:15.53392315px;line-height:125%;font-family:Pacifico;-inkscape-font-specification:Pacifico;text-align:start;letter-spacing:1.89902198px;word-spacing:0px;writing-mode:lr-tb;direction:ltr;text-anchor:start;display:inline;fill:#fafafa;fill-opacity:1;stroke:#fafafa;stroke-width:0.5;stroke-linecap:butt;stroke-linejoin:miter;stroke-miterlimit:4;stroke-dasharray:none;stroke-opacity:1"
         xml:space="preserve"><textPath
           id="textPath4803"
           xlink:href="#path4801"><tspan
   id="tspan4794"
   style="font-style:normal;font-variant:normal;font-weight:normal;font-stretch:normal;font-family:Pacifico;-inkscape-font-specification:Pacifico;text-align:start;writing-mode:lr-tb;direction:ltr;text-anchor:start;fill:#fafafa;fill-opacity:1;stroke:#fafafa;stroke-width:0.5;stroke-miterlimit:4;stroke-dasharray:none;stroke-opacity:1">PureScript</tspan></textPath></text>
      <path
         inkscape:label="purescript-text-path"
         sodipodi:nodetypes="cc"
         inkscape:connector-curvature="0"
         id="path4801"
         d="m 58.264756,123.54207 c 43.564484,20.57782 47.841694,-11.9361 88.198944,9.35444"
         style="display:inline;opacity:0;vector-effect:none;fill:none;fill-opacity:1;fill-rule:evenodd;stroke:#000000;stroke-width:1.32291663;stroke-linecap:butt;stroke-linejoin:round;stroke-miterlimit:4;stroke-dasharray:none;stroke-dashoffset:1107.35998535;stroke-opacity:1" />
      <text
         inkscape:label="pop-text"
         transform="matrix(0.95462267,-0.34747366,0.23010609,0.96377786,0,0)"
         xml:space="preserve"
         style="font-style:normal;font-variant:normal;font-weight:bold;font-stretch:normal;font-size:26.70932007px;line-height:125%;font-family:Pacifico;-inkscape-font-specification:'Pacifico Bold';text-align:start;letter-spacing:0.59595776px;word-spacing:0px;writing-mode:lr-tb;direction:ltr;text-anchor:start;display:inline;fill:#f2ec96;fill-opacity:1;stroke:none;stroke-width:0.66773307px;stroke-linecap:butt;stroke-linejoin:miter;stroke-opacity:1"
         id="text4810"
         x="62.87606"
         y="186.10161">Pop</text>
    </g>
  </g>
</svg>
